<?xml version="1.0" encoding="utf-8"?>
<!--
SPDX-FileCopyrightText: 2017-2021 City of Espoo

SPDX-License-Identifier: LGPL-2.1-or-later
-->
<!-- Generator: Adobe Illustrator 22.1.0, SVG Export Plug-In . SVG Version: 6.00 Build 0)  -->
<svg version="1.1" id="Layer_1" xmlns="http://www.w3.org/2000/svg" xmlns:xlink="http://www.w3.org/1999/xlink" x="0px" y="0px"
	 viewBox="0 0 300 61" style="enable-background:new 0 0 300 61;" xml:space="preserve">
<style type="text/css">
	.st0{fill:#9AB9E1;}
	.st1{fill:#013C8C;}
</style>
<g>
	<path class="st0" d="M56.7,32.8h-48c0.4,6,2.7,10.8,6.9,14.5c4.1,3.7,9.4,5.5,15.7,5.5c3.6,0,6.8-0.6,9.8-1.9
		c1.2-0.5,2.3-1.1,3.4-1.8c2.7-1.8,6.4-1.5,8.5,1l0.2,0.2c-2.5,3.1-5.7,5.4-9.5,7c-3.8,1.6-8,2.4-12.6,2.4c-5.9,0-11.1-1.3-15.7-3.8
		c-4.5-2.5-8.1-6-10.6-10.4C2.2,41,0.9,36,0.9,30.4c0-5.6,1.2-10.6,3.7-15.1s5.8-7.9,10-10.4c4.3-2.5,9-3.7,14.3-3.7
		c5.3,0,10.1,1.2,14.3,3.7c4.2,2.5,7.5,5.9,9.9,10.3c2.4,4.4,3.6,9.4,3.6,15.1L56.7,32.8z M15.1,13.2c-3.7,3.5-5.9,8.1-6.4,13.8
		h40.7c-0.5-5.7-2.6-10.3-6.4-13.8c-3.7-3.5-8.4-5.3-14-5.3C23.4,7.9,18.8,9.7,15.1,13.2z"/>
	<path class="st1" d="M122.3,1.2L94.8,58.8h-7.9L63.1,8.9C61.4,5.3,64,1.2,68,1.2h0L91,48.8l23.2-47.7L122.3,1.2z"/>
	<path class="st1" d="M168.7,7.1c4,3.7,5.9,9.2,5.9,16.5v35.2l0,0c-4.1,0-7.3-3.3-7.3-7.3v-1.5c-1.7,3-4.3,5.3-7.6,6.9
		c-3.3,1.7-7.3,2.5-11.9,2.5c-6.3,0-11.4-1.5-15.1-4.5c-3.7-3-5.6-7-5.6-12c0-4.8,1.7-8.7,5.2-11.7c3.5-3,9.1-4.4,16.7-4.4h18v-3.5
		c0-4.9-1.4-8.6-4.1-11.2c-2.7-2.6-6.7-3.8-12-3.8c-3.6,0-7.1,0.6-10.4,1.8c-3.3,1.2-6.2,2.8-8.5,4.9l-3.5-5.7
		c2.9-2.4,6.3-4.3,10.4-5.7c4-1.3,8.3-2,12.7-2C159,1.5,164.7,3.4,168.7,7.1z M160.1,50.3c3.1-2,5.4-4.8,6.9-8.6v-9.3h-17.8
		c-9.7,0-14.6,3.4-14.6,10.2c0,3.3,1.3,5.9,3.8,7.8c2.5,1.9,6,2.9,10.6,2.9C153.2,53.3,157,52.3,160.1,50.3z"/>
	<path class="st1" d="M214.2,31.8L198,48.9v10.4h-7.7l0-57.7v-1c4.2,0,7.7,4.5,7.7,8.7l0,29l35-36.7h9.5l-22.9,24.7l24.1,33h-9.4
		L214.2,31.8z"/>
	<path class="st1" d="M291.9,7.3c4,3.7,5.9,9.2,5.9,16.5V59l0,0c-4.1,0-7.3-3.3-7.3-7.3v-1.5c-1.7,3-4.3,5.3-7.6,6.9
		c-3.3,1.7-7.3,2.5-11.9,2.5c-6.3,0-11.4-1.5-15.1-4.5c-3.7-3-5.6-7-5.6-12c0-4.8,1.7-8.7,5.2-11.7c3.5-3,9.1-4.4,16.7-4.4h18v-3.5
		c0-4.9-1.4-8.6-4.1-11.2c-2.7-2.6-6.7-3.8-12-3.8c-3.6,0-7.1,0.6-10.4,1.8c-3.3,1.2-6.2,2.8-8.5,4.9l-3.5-5.7
		C254.6,6.9,258,5,262,3.7c4-1.3,8.3-2,12.7-2C282.2,1.7,287.9,3.6,291.9,7.3z M283.2,50.5c3.1-2,5.4-4.8,6.9-8.6v-9.3h-17.8
		c-9.7,0-14.6,3.4-14.6,10.2c0,3.3,1.3,5.9,3.8,7.8c2.5,1.9,6,2.9,10.6,2.9C276.4,53.4,280.1,52.5,283.2,50.5z"/>
</g>
</svg>
