<?xml version="1.0" encoding="UTF-8" standalone="no"?>
<svg
   id="Layer_1"
   data-name="Layer 1"
   viewBox="-20 -10 635.25998 157.93301"
   version="1.1"
   sodipodi:docname="Pirkkala_vaakunatunnus_vaaka_RGB.svg"
   width="635.26001"
   height="157.933"
   inkscape:version="1.3.2 (091e20e, 2023-11-25, custom)"
   xmlns:inkscape="http://www.inkscape.org/namespaces/inkscape"
   xmlns:sodipodi="http://sodipodi.sourceforge.net/DTD/sodipodi-0.dtd"
   xmlns="http://www.w3.org/2000/svg"
   xmlns:svg="http://www.w3.org/2000/svg"
   xmlns:rdf="http://www.w3.org/1999/02/22-rdf-syntax-ns#"
   xmlns:cc="http://creativecommons.org/ns#"
   xmlns:dc="http://purl.org/dc/elements/1.1/">
  <sodipodi:namedview
     id="namedview12"
     pagecolor="#ffffff"
     bordercolor="#000000"
     borderopacity="0.25"
     inkscape:showpageshadow="2"
     inkscape:pageopacity="0.0"
     inkscape:pagecheckerboard="0"
     inkscape:deskcolor="#d1d1d1"
     inkscape:zoom="4.6012656"
     inkscape:cx="317.63"
     inkscape:cy="79.000005"
     inkscape:window-width="3440"
     inkscape:window-height="1369"
     inkscape:window-x="-8"
     inkscape:window-y="-8"
     inkscape:window-maximized="1"
     inkscape:current-layer="Layer_1" />
  <defs
     id="defs1">
    <style
       id="style1">.cls-1{fill:#da291c;}.cls-2{fill:#c8c9c7;}</style>
  </defs>
  <title
     id="title1">Pirkkala_vaakunatunnus_vaaka_RGB</title>
  <path
     d="m 184.61,43.71 h 25.95 c 9.44,0 18.25,4.29 18.25,16.29 0,12.52 -7.14,17.4 -18.25,17.4 h -12.79 v 16.82 h -13.16 z m 13.16,23.49 h 10.81 c 4.1,0 7.07,-1.7 7.07,-6.3 0,-4.6 -3,-6.65 -7.07,-6.65 h -10.81 z"
     id="path1" />
  <path
     d="m 241,43.71 h 13.16 V 94.22 H 241 Z"
     id="path2" />
  <path
     d="m 271.15,43.71 h 25.76 c 8.91,0 17.68,4 17.68,14.22 0,5.45 -2.61,10.61 -7.92,12.66 v 0.15 c 5.38,1.26 6.93,7.26 7.33,12.09 0.14,2.12 0.35,9.55 2.12,11.39 h -13 c -1.13,-1.7 -1.34,-6.65 -1.48,-8.06 -0.36,-5.1 -1.21,-10.33 -7.36,-10.33 h -10 v 18.39 h -13.13 z m 13.16,21.93 h 11 c 4,0 6.08,-2.12 6.08,-5.94 0,-3.82 -3,-5.45 -6.65,-5.45 h -10.43 z"
     id="path3" />
  <path
     d="m 460.53,43.71 h 13.37 l 18.89,50.51 h -13.72 l -3.12,-9 h -17.61 l -3.19,9 h -13.51 z m 0.85,31.69 h 11.46 l -5.59,-17.68 h -0.14 z"
     id="path4" />
  <path
     d="m 500.28,43.71 h 13.16 V 82.9 H 537 v 11.32 h -36.72 z"
     id="path5" />
  <path
     d="m 563,43.71 h 13.37 l 18.89,50.51 h -13.71 l -3.11,-9 h -17.62 l -3.18,9 h -13.51 z m 0.84,31.69 h 11.47 l -5.59,-17.68 h -0.15 z"
     id="path6" />
  <path
     d="m 351,74.7 h -6.8 V 94 H 330.57 V 44.49 h 13.65 v 18.75 h 6.87 l 11,-18.75 h 14.22 L 361.49,68.83 377.55,94 h -15.14 z"
     id="path7" />
  <path
     d="m 408.7,74.7 h -6.79 V 94 H 388.25 V 44.49 h 13.66 v 18.75 h 6.86 l 11,-18.75 H 434 L 419.17,68.83 435.23,94 h -15.14 z"
     id="path8" />
  <g
     id="kJBO7K.tif">
    <path
       class="cls-1"
       d="m 59.79,137.85 c -11.49,-4 -22.7,-8.64 -32.48,-16.1 A 51.8,51.8 0 0 1 8.58,94.09 76.09,76.09 0 0 1 5.88,77.19 c -0.09,-1.77 -0.27,-3.53 -0.41,-5.3 2.36,-1.47 4.7,-3 7.09,-4.39 a 1.91,1.91 0 0 0 1.07,-1.81 c 0.09,-5 0.27,-10 0.38,-15 A 1.78,1.78 0 0 1 14.93,49 C 17,47.69 19,46.31 21.05,44.9 a 1.45,1.45 0 0 1 2,-0.07 c 2.36,1.6 4.88,3 7.37,4.39 a 1.7,1.7 0 0 1 1,1.79 c -0.17,5 -0.23,10 -0.39,15 a 1.67,1.67 0 0 0 1,1.79 c 2.27,1.21 4.5,2.5 6.74,3.79 1,0.59 1.76,1.08 3.11,0.12 a 66.57,66.57 0 0 1 7.82,-4.32 1.58,1.58 0 0 0 1,-1.65 c -0.06,-5 0,-10 -0.09,-15 a 1.67,1.67 0 0 1 0.89,-1.66 c 2.08,-1.31 4.11,-2.7 6.18,-4 0.55,-0.36 1,-0.92 1.75,-0.94 a 2.77,2.77 0 0 0 -0.11,1.31 z"
       id="path9" />
    <path
       class="cls-2"
       d="M 59.79,137.85 59.37,45.42 a 2.77,2.77 0 0 1 0.11,-1.31 v 0 c 0.69,0.09 0.83,0.81 1.38,1.13 2.27,1.3 4.46,2.74 6.72,4.07 A 1.6,1.6 0 0 1 68.46,51 c -0.09,5 -0.1,10 -0.21,15 a 1.87,1.87 0 0 0 1.08,1.91 c 2.12,1.22 4.2,2.54 6.3,3.81 0.85,0.52 1.44,1 2.63,0.11 a 65.19,65.19 0 0 1 7.28,-4.28 1.38,1.38 0 0 0 0.83,-1.4 c 0,-5.2 0.13,-10.41 0.17,-15.61 A 1.55,1.55 0 0 1 87.39,49 c 2,-1.19 4.07,-2.44 6.09,-3.7 1,-0.64 1.77,-1.22 3.18,-0.19 a 59.77,59.77 0 0 0 7.49,4.16 1.59,1.59 0 0 1 1,1.68 c -0.11,5.12 -0.14,10.25 -0.2,15.37 a 1.29,1.29 0 0 0 0.56,1.33 c 2.43,1.59 4.82,3.22 7.23,4.84 A 18.82,18.82 0 0 1 112.5,77 c -0.48,7 -1.3,14 -3.7,20.74 a 51.65,51.65 0 0 1 -18.59,24.43 c -7.47,5.52 -15.75,9.53 -24.19,13.27 -1.69,0.75 -3.39,1.47 -5.09,2.19 -0.36,0.17 -0.71,0.44 -1.14,0.22 z"
       id="path10" />
    <path
       class="cls-2"
       d="m 59.48,44.11 c -0.74,0 -1.2,0.58 -1.75,0.94 -2.07,1.33 -4.1,2.72 -6.18,4 a 1.67,1.67 0 0 0 -0.89,1.66 c 0.05,5 0,10 0.09,15 a 1.58,1.58 0 0 1 -1,1.65 66.57,66.57 0 0 0 -7.82,4.32 c -1.35,1 -2.09,0.47 -3.11,-0.12 -2.24,-1.29 -4.47,-2.58 -6.74,-3.79 a 1.67,1.67 0 0 1 -1,-1.79 c 0.16,-5 0.22,-10 0.39,-15 a 1.7,1.7 0 0 0 -1,-1.79 c -2.49,-1.41 -5,-2.79 -7.37,-4.39 a 1.45,1.45 0 0 0 -2,0.07 C 19,46.31 17,47.69 14.93,49 A 1.78,1.78 0 0 0 14,50.68 c -0.11,5 -0.29,10 -0.38,15 a 1.91,1.91 0 0 1 -1.07,1.81 c -2.39,1.43 -4.73,2.92 -7.09,4.39 Q 4.1,54 2.73,36.19 1.38,18.64 0,1.09 C 0,0.26 0.07,0 1,0 q 28.7,0.06 57.45,0 c 0.32,0 0.64,0.06 0.95,0.09 0,0.44 0,0.89 0,1.33 q 0,20.57 0,41.14 c 0,0.52 0,1 0.07,1.54 z"
       id="path11" />
    <path
       class="cls-1"
       d="m 59.45,44.13 c 0,-0.51 -0.07,-1 -0.07,-1.54 q 0,-20.57 0,-41.14 c 0,-0.44 0,-0.89 0,-1.33 C 59.93,0.09 60.45,0 61,0 q 28.52,0 57,0 c 1.17,0 1.41,0.35 1.31,1.43 -0.68,7.25 -1.31,14.51 -2,21.77 -0.69,7.26 -1.31,14.51 -1.91,21.8 -0.73,8.18 -1.44,16.36 -2.22,24.54 a 6.9,6.9 0 0 1 -0.45,2.94 c -2.41,-1.62 -4.8,-3.25 -7.23,-4.84 a 1.29,1.29 0 0 1 -0.56,-1.33 c 0.06,-5.12 0.09,-10.25 0.2,-15.37 a 1.59,1.59 0 0 0 -1,-1.68 59.77,59.77 0 0 1 -7.49,-4.16 c -1.41,-1 -2.15,-0.45 -3.18,0.19 -2,1.26 -4,2.51 -6.09,3.7 a 1.55,1.55 0 0 0 -0.85,1.54 c 0,5.2 -0.13,10.41 -0.17,15.61 a 1.38,1.38 0 0 1 -0.83,1.4 65.19,65.19 0 0 0 -7.28,4.28 c -1.19,0.88 -1.78,0.41 -2.63,-0.11 -2.1,-1.27 -4.18,-2.59 -6.3,-3.81 A 1.87,1.87 0 0 1 68.25,66 c 0.11,-5 0.12,-10 0.21,-15 A 1.6,1.6 0 0 0 67.55,49.38 C 65.29,48.05 63.1,46.61 60.83,45.31 60.28,44.94 60.14,44.22 59.45,44.13 Z"
       id="path12" />
  </g>
  <metadata
     id="metadata12">
    <rdf:RDF>
      <cc:Work
         rdf:about="">
        <dc:title>Pirkkala_vaakunatunnus_vaaka_RGB</dc:title>
      </cc:Work>
    </rdf:RDF>
  </metadata>
</svg>
