<?xml version="1.0" encoding="utf-8"?>
<!-- Generator: Adobe Illustrator 26.0.2, SVG Export Plug-In . SVG Version: 6.00 Build 0)  -->
<svg version="1.1" id="Layer_1" xmlns="http://www.w3.org/2000/svg" xmlns:xlink="http://www.w3.org/1999/xlink" x="0px" y="0px"
	 viewBox="0 0 283.5 78" style="enable-background:new 0 0 283.5 78;" xml:space="preserve">
<style type="text/css">
	.st0{fill:#CBAD7C;}
</style>
<g>
	<g>
		<path class="st0" d="M44.8,21.4c-0.6,0.3-1,1-1,1.6v49.7c0,0.6,0.5,1.3,1.1,1.4l16,3.8c0.6,0.1,1.6,0.1,2.2-0.2L73.5,73
			c0.6-0.3,1-1,1-1.6V59.7c0-0.6-0.5-0.9-1-0.7L63,63.7c-0.6,0.3-1,1-1,1.6v11.5c0,0.6-0.3,0.7-0.7,0.2L57,71.2
			c-0.4-0.5-0.7-1.4-0.7-2.1V50.3c0-0.6,0.5-1.3,1.1-1.4l16-3.8c0.6-0.1,1.1-0.8,1.1-1.4v-22c0-0.6-0.5-1.3-1.1-1.4l-16-3.8
			c-0.6-0.1-1.6-0.1-2.2,0.2L44.8,21.4z M61.3,23.3c0.4,0.5,0.7,1.4,0.7,2.1v18.8c0,0.6-0.5,1.3-1.1,1.4l-3.5,0.8
			c-0.6,0.1-1.1-0.2-1.1-0.9v-28c0-0.6,0.3-0.7,0.7-0.2L61.3,23.3z"/>
		<path class="st0" d="M82.9,21.4c-0.6,0.3-1,1-1,1.6v20.6c0,0.6,0.5,1.3,1.1,1.4l16,3.8c0.6,0.1,1.1,0.8,1.1,1.4v26.6
			c0,0.6-0.3,0.7-0.7,0.2l-4.3-5.9c-0.4-0.5-0.7-1.4-0.7-2.1V58.6c0-0.6-0.5-1.3-1.1-1.4L83,55.1c-0.6-0.1-1.1,0.3-1.1,0.9v16.7
			c0,0.6,0.5,1.3,1.1,1.4l16,3.8c0.6,0.1,1.6,0.1,2.2-0.2l10.5-4.7c0.6-0.3,1-1,1-1.6V50.8c0-0.6-0.5-1.3-1.1-1.4l-16-3.8
			c-0.6-0.1-1.1-0.8-1.1-1.4V17.5c0-0.6,0.3-0.7,0.7-0.2l4.3,5.9c0.4,0.5,0.7,1.4,0.7,2.1v10.5c0,0.6,0.5,1.2,1.1,1.4l10.3,1.8
			c0.6,0.1,1.1-0.3,1.1-0.9V21.7c0-0.6-0.5-1.3-1.1-1.4l-16-3.8c-0.6-0.1-1.6-0.1-2.2,0.2L82.9,21.4z"/>
		<path class="st0" d="M255.1,28.7c0-0.6,0.5-1.1,1.1-1.1h3.4c0.6,0,1.1-0.5,1.1-1.1v-4.7c0-0.6-0.5-1.1-1.1-1.1h-3.4
			c-0.6,0-1.1-0.5-1.1-1.1V9.3c0-0.6-0.5-0.9-1.1-0.7l-10.5,4.7c-0.6,0.3-1,1-1,1.6v60.5c0,0.6,0.5,1.1,1.2,1.1H254h2.3h3.4
			c0.6,0,0.8-0.4,0.4-0.9l-4.3-5.2c-0.4-0.5-0.7-1.4-0.7-2L255.1,28.7z"/>
		<path class="st0" d="M182.8,16.5c-0.6-0.1-1.6-0.1-2.2,0l-16,3.8c-0.6,0.1-1.1,0.8-1.1,1.4V38c0,0.6,0.5,1,1.1,0.9l10.3-2.5
			c0.6-0.1,1.1-0.8,1.1-1.4V22.9c0-0.6,0.4-1.5,0.8-1.9l4-3.8c0.5-0.4,0.8-0.3,0.8,0.4v26c0,0.6-0.5,1.3-1.1,1.4l-16,3.8
			c-0.6,0.1-1.1,0.8-1.1,1.4v21.1c0,0.6,0.5,1.4,1,1.6l10.5,4.7c0.6,0.3,1.6,0.4,2.2,0.2l16-3.8c0.6-0.1,1.1-0.8,1.1-1.4V20.4
			c0-0.6-0.5-1.3-1.1-1.4L182.8,16.5z M176.6,77.1c-0.4,0.5-0.7,0.4-0.7-0.2V49.7c0-0.6,0.5-1.3,1.1-1.4l3.5-0.8
			c0.6-0.1,1.1,0.2,1.1,0.9v20.7c0,0.6-0.3,1.6-0.7,2.1L176.6,77.1z"/>
		<path class="st0" d="M233.2,21.7c0-0.6-0.5-1.3-1.1-1.4l-16-3.8c-0.6-0.1-1.1-0.8-1.1-1.4v-6c0-0.6-0.5-1.3-1.1-1.4l-16-3.8
			c-0.6-0.1-0.8,0.2-0.5,0.7l4.4,6.1c0.4,0.5,0.7,1.5,0.7,2.1v62.4c0,0.6,0.5,1.2,1.1,1.2h10.3c0.6,0,1.1-0.5,1.1-1.2V17.5
			c0-0.6,0.3-0.7,0.7-0.2l4.3,5.9c0.4,0.5,0.7,1.4,0.7,2.1v49.9c0,0.6,0.5,1.2,1.2,1.2h16c0.6,0,0.8-0.6,0.4-1.1l-4.2-5
			c-0.4-0.5-0.7-1.4-0.7-2V21.7H233.2z"/>
		<path class="st0" d="M154.9,9.1c0-0.6-0.5-1.3-1.1-1.4l-16-3.8c-0.6-0.1-0.8,0.2-0.5,0.7l4.4,6.1c0.4,0.5,0.7,1.5,0.7,2.1v62.4
			c0,0.6,0.5,1.1,1.1,1.1h16c0.6,0,0.8-0.4,0.4-0.9l-4.3-5.2c-0.4-0.5-0.7-1.4-0.7-2L154.9,9.1L154.9,9.1z"/>
		<path class="st0" d="M133,22.2c0-0.6-0.5-1.3-1.1-1.4l-10.3-2.4c-0.6-0.1-1.1,0.3-1.1,0.9v56c0,0.6,0.5,1.1,1.1,1.1h16
			c0.6,0,0.8-0.4,0.4-0.9l-4.3-5.2c-0.4-0.5-0.7-1.4-0.7-2L133,22.2z"/>
		<path class="st0" d="M131.8,13.8c0.6,0.1,1.1-0.3,1.1-0.9v-9c0-0.6-0.5-1.3-1.1-1.4L121.5,0c-0.6-0.1-1.1,0.3-1.1,0.9v9
			c0,0.6,0.5,1.3,1.1,1.4L131.8,13.8z"/>
		<path class="st0" d="M278.3,22.2c0-0.6-0.5-1.3-1.1-1.4l-10.3-2.4c-0.6-0.1-1.1,0.3-1.1,0.9v56c0,0.6,0.5,1.1,1.1,1.1h16
			c0.6,0,0.8-0.4,0.4-0.9l-4.3-5.2c-0.4-0.5-0.7-1.4-0.7-2V22.2z"/>
		<path class="st0" d="M277.2,13.8c0.6,0.1,1.1-0.3,1.1-0.9v-9c0-0.6-0.5-1.3-1.1-1.4L266.8,0c-0.6-0.1-1.1,0.3-1.1,0.9v9
			c0,0.6,0.5,1.3,1.1,1.4L277.2,13.8z"/>
		<path class="st0" d="M23.5,76.9c0,0.6-0.3,0.7-0.7,0.2l-4.3-5.9c-0.4-0.5-0.7-1.4-0.7-2.1V21.7c0-0.6-0.5-1.3-1.1-1.4l-16-3.8
			c-0.6-0.1-0.8,0.2-0.4,0.7l4.4,6.1c0.4,0.5,0.7,1.5,0.7,2.1v47.4c0,0.6,0.5,1.3,1.1,1.4l16,3.8c0.6,0.1,1.6,0.1,2.2-0.2L35,73
			c0.6-0.3,1-1,1-1.6V17.3c0-0.6-0.5-0.9-1-0.7l-10.5,4.7c-0.6,0.3-1,1-1,1.6V76.9z"/>
	</g>
</g>
</svg>
