<?xml version="1.0" encoding="utf-8"?>
<!-- Generator: Adobe Illustrator 28.3.0, SVG Export Plug-In . SVG Version: 6.00 Build 0)  -->
<svg version="1.1" id="Layer_1" xmlns="http://www.w3.org/2000/svg" xmlns:xlink="http://www.w3.org/1999/xlink" x="0px" y="0px"
	 viewBox="0 0 495.95 246.6" style="enable-background:new 0 0 495.95 246.6;" xml:space="preserve">
<style type="text/css">
	.st0{fill:#4F96DD;}
	.st1{fill:#112D60;}
</style>
<polygon class="st0" points="88.82,170.01 53.54,192.71 53.54,133.24 88.82,110.33 "/>
<polygon class="st0" points="175.93,160.75 140.65,184.06 140.65,76.67 175.93,53.84 "/>
<polygon class="st0" points="132.38,181.71 97.1,167.29 97.1,128.56 132.38,141.56 "/>
<polygon class="st1" points="229.29,122.64 217.11,99.09 217.11,122.64 209.91,122.64 209.91,87.44 219.02,87.44 230.73,111.32 
	230.73,87.44 237.92,87.44 237.92,122.64 "/>
<g>
	<path class="st1" d="M275.28,104.75c0-8.15-2.11-11.7-6.62-11.7c-4.36,0-7.19,3.5-7.19,11.89c0,8.35,2.16,12.18,6.95,12.18
		C273.07,117.12,275.28,113.48,275.28,104.75 M253.31,105.18c0-11.7,6.04-18.37,15.59-18.37c9.78,0,14.53,6.52,14.53,17.79
		c0,11.85-5.18,18.61-15.25,18.61C258.11,123.21,253.31,116.64,253.31,105.18"/>
</g>
<polygon class="st1" points="306.54,102.11 318.63,87.44 327.26,87.44 315.08,101.87 328.31,122.64 319.25,122.64 309.85,108.11 
	306.54,112.04 306.54,122.64 298.77,122.64 298.77,87.44 306.54,87.44 "/>
<polygon class="st1" points="351.67,117.65 355.22,117.65 355.22,122.64 340.4,122.64 340.4,117.65 343.95,117.65 343.95,92.42 
	340.4,92.42 340.4,87.44 355.22,87.44 355.22,92.42 351.67,92.42 "/>
<path class="st1" d="M383.56,94.58h-0.1l-4.32,14h8.87L383.56,94.58z M388.5,87.44l11.85,35.2h-7.96l-2.69-8.1h-12.18l-2.59,8.1
	h-7.72l11.61-35.2H388.5z"/>
<polygon class="st1" points="433.19,122.64 421.01,99.09 421.01,122.64 413.82,122.64 413.82,87.44 422.93,87.44 434.63,111.32 
	434.63,87.44 441.82,87.44 441.82,122.64 "/>
<polygon class="st1" points="212.42,154.34 224.77,139.81 227.8,139.81 217.68,151.74 228.42,167.96 225.35,167.96 215.88,153.88 
	212.42,157.95 212.42,167.96 209.66,167.96 209.66,139.81 212.42,139.81 "/>
<path class="st1" d="M248.21,142.3l-5.22,15.22h10.51L248.21,142.3z M250.16,139.81l9.82,28.15h-2.84l-2.88-8.21h-12l-2.8,8.21h-2.8
	l9.74-28.15H250.16z"/>
<g>
	<path class="st1" d="M287.75,139.81h2.76v18.41c0,6.52-3.57,10.2-10.05,10.2c-6.9,0-9.74-3.87-9.74-10.24v-18.37h2.76v17.95
		c0,5.75,2.34,8.32,7.17,8.32c4.68,0,7.1-2.45,7.1-8.25V139.81z"/>
	<path class="st1" d="M312.26,154.69c5.29,0,7.48-2.42,7.48-6.9c0-4.03-1.96-5.75-6.67-5.75h-5.02v12.66H312.26z M308.04,167.96
		h-2.76v-28.15h8.44c7.17,0,8.94,3.68,8.94,7.9c0,3.99-1.57,9.24-10.32,9.24h-4.29V167.96z"/>
	<path class="st1" d="M352.53,139.81h2.76v18.41c0,6.52-3.57,10.2-10.05,10.2c-6.9,0-9.74-3.87-9.74-10.24v-18.37h2.76v17.95
		c0,5.75,2.34,8.32,7.17,8.32c4.68,0,7.1-2.45,7.1-8.25V139.81z"/>
</g>
<polygon class="st1" points="385.71,167.96 372.59,142.8 372.59,167.96 370.06,167.96 370.06,139.81 373.86,139.81 386.55,164.55 
	386.55,139.81 389.05,139.81 389.05,167.96 "/>
<polygon class="st1" points="406.77,154.34 419.12,139.81 422.15,139.81 412.02,151.74 422.76,167.96 419.69,167.96 410.22,153.88 
	406.77,157.95 406.77,167.96 404.01,167.96 404.01,139.81 406.77,139.81 "/>
<polygon class="st1" points="438.76,165.73 441.82,165.73 441.82,167.96 433.12,167.96 433.12,165.73 436.07,165.73 436.07,142.03 
	433.12,142.03 433.12,139.81 441.82,139.81 441.82,142.03 438.76,142.03 "/>
</svg>
