<?xml version="1.0" encoding="UTF-8" standalone="no"?>
<svg
   version="1.1"
   id="Layer_1"
   x="0px"
   y="0px"
   width="827"
   viewBox="0 12 827 245"
   enable-background="new 0 0 827 245"
   xml:space="preserve"
   sodipodi:docname="Lempaala_logo_vaaka (2).svg"
   inkscape:version="1.3.2 (091e20e, 2023-11-25, custom)"
   height="245"
   xmlns:inkscape="http://www.inkscape.org/namespaces/inkscape"
   xmlns:sodipodi="http://sodipodi.sourceforge.net/DTD/sodipodi-0.dtd"
   xmlns="http://www.w3.org/2000/svg"
   xmlns:svg="http://www.w3.org/2000/svg"><defs
   id="defs22" /><sodipodi:namedview
   id="namedview22"
   pagecolor="#ffffff"
   bordercolor="#000000"
   borderopacity="0.25"
   inkscape:showpageshadow="2"
   inkscape:pageopacity="0.0"
   inkscape:pagecheckerboard="0"
   inkscape:deskcolor="#d1d1d1"
   inkscape:zoom="0.88361548"
   inkscape:cx="516.06158"
   inkscape:cy="-170.88881"
   inkscape:window-width="1718"
   inkscape:window-height="1360"
   inkscape:window-x="1713"
   inkscape:window-y="0"
   inkscape:window-maximized="0"
   inkscape:current-layer="Layer_1" />

<path
   fill="#104395"
   opacity="1"
   stroke="none"
   d="m 574.21869,126.74143 c 9.82104,23.13215 19.49817,45.9089 29.57977,69.63786 -7.67865,0 -14.73462,0.11856 -21.77636,-0.14443 -0.91913,-0.0343 -2.06739,-1.90109 -2.594,-3.13852 -2.66229,-6.25535 -5.15393,-12.58332 -7.78857,-19.09117 -13.2569,0 -26.40729,-0.0815 -39.55304,0.12943 -1.2779,0.0205 -3.09357,1.58728 -3.68927,2.88254 -2.35791,5.12696 -4.45606,10.38542 -6.39179,15.68952 -0.98242,2.69198 -2.29895,3.86611 -5.37646,3.80672 -10.80692,-0.20863 -21.62195,-0.18016 -32.4303,-0.0113 -2.78085,0.0435 -4.19309,-0.80795 -5.13968,-3.42414 -1.92096,-5.30913 -3.95691,-10.59981 -6.38708,-15.68712 -0.71372,-1.49404 -2.89527,-3.20943 -4.43604,-3.24051 -12.81647,-0.25873 -25.64041,-0.14676 -38.88205,-0.14676 -2.62015,6.39847 -5.13068,12.85883 -7.96051,19.17618 -0.60455,1.34968 -2.32571,3.04173 -3.60492,3.1047 -6.43204,0.31658 -12.88803,0.14524 -20.06869,0.14524 4.59161,-10.82535 8.90795,-21.00609 13.22775,-31.18537 9.28284,-21.87437 18.63299,-43.7207 27.77234,-65.654881 1.20953,-2.902817 2.57177,-4.153786 5.77792,-3.952065 5.30331,0.333672 11.82355,-1.59452 15.61484,0.857285 3.74225,2.420051 4.84448,9.044461 6.91662,13.904671 11.14051,26.13048 22.22229,52.286 33.64762,79.19414 0.99838,-2.216 1.75735,-3.81991 2.45074,-5.45172 11.95639,-28.13887 23.96695,-56.25514 35.7684,-84.458904 1.32618,-3.169419 2.91419,-4.304863 6.25373,-4.042374 5.26507,0.413834 11.69409,-1.33844 15.51733,1.116722 3.60919,2.317749 4.52216,8.868326 6.56543,13.581136 2.31311,5.33521 4.56421,10.69732 6.98627,16.40313 M 442.66504,141.0417 c -1.77475,4.32768 -3.54953,8.65536 -5.41464,13.20335 9.12606,0 17.3356,0 26.18472,0 -4.37082,-10.72342 -8.53567,-20.94144 -13.05615,-32.03201 -2.68924,6.53621 -5.06961,12.32173 -7.71393,18.82866 m 103.92651,13.52972 c 5.52808,0 11.05622,0 17.24768,0 -4.54767,-11.11664 -8.72314,-21.32349 -13.25702,-32.40632 -4.54303,11.15508 -8.72564,21.4251 -13.1975,32.40551 3.36059,0 5.80352,0 9.20684,8.1e-4 z"
   id="path2" />
<path
   fill="#124496"
   opacity="1"
   stroke="none"
   d="m 253.53722,113.44908 c 5.36961,8.24251 10.52265,16.19484 15.97743,24.61281 8.34701,-12.84837 16.57889,-25.27294 24.50397,-37.89024 2.00201,-3.187328 4.06146,-4.63171 7.94003,-4.392437 6.09277,0.375862 12.22577,0.09981 18.58249,0.09981 0,33.430437 0,66.350297 0,99.684257 -6.98612,0 -14.02048,0 -21.55597,0 0,-20.93549 0,-41.95767 0,-62.97986 -0.36536,-0.14237 -0.73071,-0.28473 -1.09607,-0.42709 -9.41641,13.69143 -18.83286,27.38287 -28.64606,41.65123 -9.69171,-14.08909 -18.99927,-27.61976 -29.0137,-42.17801 0,21.97899 0,42.88989 0,64.0704 -7.52705,0 -14.43324,0 -21.64542,0 0,-33.13718 0,-66.18684 0,-99.809872 7.40525,0 14.68019,-0.111023 21.94458,0.115829 1.13164,0.03534 2.51615,1.406655 3.26888,2.511086 3.27823,4.809897 6.36619,9.749457 9.73984,14.932087 z"
   id="path3" />
<path
   fill="#104395"
   opacity="1"
   stroke="none"
   d="m 736.83594,97.81321 c 13.89831,32.8139 27.64764,65.24058 41.77777,98.5651 -7.62012,0 -14.67798,0.11809 -21.7218,-0.14265 -0.92804,-0.0344 -2.0932,-1.87154 -2.62043,-3.10033 -2.29309,-5.34441 -4.21698,-10.85396 -6.67858,-16.11467 -0.63532,-1.3578 -2.72199,-2.86131 -4.16663,-2.88654 -12.82111,-0.22383 -25.64771,-0.13014 -38.96491,-0.13014 -2.42431,5.85898 -5.22369,11.67182 -7.20513,17.75125 -1.29914,3.9863 -3.3888,4.99233 -7.27033,4.75777 -5.44446,-0.32906 -10.92377,-0.0831 -17.15814,-0.0831 2.15124,-5.07206 4.06299,-9.57805 5.97369,-14.08449 11.67676,-27.54032 23.41968,-55.05297 34.93903,-82.658968 1.32556,-3.176705 2.90039,-4.28891 6.22772,-4.055077 4.14502,0.291306 8.33368,-0.07205 12.487,0.15242 1.43597,0.07761 2.82257,1.068497 4.38074,2.029435 m 0.94061,53.71041 c -3.90442,-9.46649 -7.8089,-18.93298 -12.0968,-29.32914 -4.57044,11.24075 -8.74652,21.51171 -13.16431,32.37699 8.53778,0 16.16046,0.0517 23.77912,-0.10156 0.58715,-0.0118 1.14532,-1.46643 1.48199,-2.94629 z"
   id="path4" />
<path
   fill="#114395"
   opacity="1"
   stroke="none"
   d="m 333.15607,108.02384 c 0,-3.98467 0,-7.47447 0,-10.770674 0.46643,-0.412033 0.71371,-0.820793 0.95782,-0.818924 15.63373,0.119454 31.31943,-0.473747 46.88696,0.617302 18.09122,1.267929 30.20481,13.997586 31.05411,30.664306 1.00067,19.63666 -8.65777,33.37338 -27.33768,37.06203 -8.38894,1.65651 -17.20074,1.17035 -25.8204,1.66134 -0.98312,0.056 -1.96448,0.14354 -3.52454,0.25934 0,9.81407 0,19.53762 0,29.44322 -7.67858,0 -14.76388,0 -22.2163,0 0,-29.40379 0,-58.51342 3e-5,-88.11794 m 39.00143,8.13682 c -5.58636,0 -11.17273,0 -16.61813,0 0,10.68462 0,20.58293 0,30.6611 6.36273,0 12.35629,0.24149 18.32254,-0.0591 8.05331,-0.40573 13.3443,-4.26379 15.33865,-10.58663 3.41046,-10.81241 -2.73343,-18.42479 -17.04306,-20.01536 z"
   id="path5" />
<path
   fill="#114395"
   opacity="1"
   stroke="none"
   d="m 71.63578,170.90926 c 0.06271,1.80233 0.125344,3.11383 0.211159,4.91059 15.367683,0 30.594621,0 46.374431,0 -2.51105,6.98243 -4.80107,13.35019 -7.16205,19.91532 -20.371027,0 -40.606119,0 -61.169118,0 0,-33.15409 0,-66.33484 0,-99.685663 7.170497,0 14.131015,0 21.745517,0 0,24.879543 0,49.624233 6.1e-5,74.859753 z"
   id="path6" />
<path
   fill="#124596"
   opacity="1"
   stroke="none"
   d="m 608.20843,128.99994 c 0,-10.98235 0,-21.46472 0,-32.368455 7.25684,0 14.29468,0 21.92548,0 0,26.332515 0,52.698245 0,79.488205 14.81421,0 29.05359,0 44.09894,0 -2.84985,6.7072 -5.36041,12.79765 -8.08124,18.79266 -0.34625,0.7629 -1.7904,1.45665 -2.72754,1.45874 -17.98022,0.0402 -35.96069,-0.0259 -53.94104,-0.0925 -0.29199,-0.001 -0.58295,-0.28283 -1.2746,-0.6406 0,-21.90983 0,-44.02394 0,-66.63808 z"
   id="path7" />
<path
   fill="#2e7dc0"
   opacity="1"
   stroke="none"
   d="m 124.09212,192.05334 c 0.84883,-12.45893 4.50842,-23.92459 13.47754,-32.87794 2.8881,-2.88303 7.1959,-4.78787 11.19905,-6.01878 8.7254,-2.68288 17.60698,-4.95752 26.54419,-6.82833 13.07364,-2.73669 22.38011,-10.45308 29.71994,-21.09533 1.27662,-1.851 2.51402,-3.72905 3.97313,-5.89712 3.79754,15.63334 -2.79329,30.06067 -17.08333,35.39441 -9.10672,3.39907 -18.80811,5.71003 -28.44589,7.06911 -16.7276,2.3589 -29.59572,9.38278 -36.47517,25.46375 -0.65035,1.52018 -1.59135,2.91604 -2.675,4.56822 -0.27761,0.19859 -0.23446,0.22201 -0.23446,0.22201 z"
   id="path8" />
<path
   fill="#99c225"
   opacity="1"
   stroke="none"
   d="m 160.2456,90.287766 c -9.33726,1.949295 -18.24864,3.992332 -27.2418,5.568702 -12.47711,2.187042 -21.35125,8.633222 -26.02271,20.591622 -0.93549,2.39478 -2.20861,4.65766 -3.74968,6.79843 0.78276,-11.74011 2.93419,-23.13188 11.61091,-31.745444 3.00029,-2.978462 7.50435,-4.869087 11.66185,-6.163956 8.07519,-2.515076 16.32612,-4.580933 24.62193,-6.246986 14.16942,-2.845642 24.24933,-11.084862 31.88818,-22.879116 0.94149,-1.453625 1.91509,-2.88646 3.12564,-4.707833 3.91046,19.996937 -4.64938,32.695919 -25.89432,38.784581 z"
   id="path9" />
<path
   fill="#32ace2"
   opacity="1"
   stroke="none"
   d="m 188.33475,99.334923 c 3.73517,-4.667061 7.21852,-9.080574 10.65339,-13.432663 4.02994,9.644462 -1.30392,25.41022 -10.88887,31.58676 -9.04309,5.82737 -19.46161,7.41062 -29.72892,9.41506 -2.60703,0.50896 -5.22437,1.00952 -7.85978,1.3212 -16.27418,1.9248 -27.30658,10.33406 -32.50443,26.06326 -0.33816,1.02332 -0.90432,1.97127 -1.76768,2.789 0.73376,-11.25524 2.70166,-22.24537 10.45035,-30.871 2.92192,-3.2526 7.39638,-5.71217 11.6319,-7.05999 9.31811,-2.96519 18.91502,-5.07386 28.43558,-7.37738 8.31254,-2.01123 15.46656,-5.93368 21.57846,-12.434247 z"
   id="path10" />
<path
   fill="#154797"
   opacity="1"
   stroke="none"
   d="m 566.68518,90.652176 c -4.09607,1.52e-4 -7.73688,1.52e-4 -11.66748,1.52e-4 0,-5.29689 0,-10.226913 0,-15.399108 5.33398,0 10.6023,0 16.4248,0 0,4.328239 -0.0172,8.622123 0.005,12.915794 0.0179,3.390411 -2.53168,2.247627 -4.76282,2.483162 z"
   id="path11" />
<path
   fill="#1b4b9a"
   opacity="1"
   stroke="none"
   d="m 728.85498,85.841713 c 0,-3.76989 0,-7.061096 0,-10.589737 5.66449,0 10.91168,0 16.44556,0 0,5.029152 0,9.933456 0,15.130852 -5.33142,0 -10.42347,0 -16.0777,0 -0.11505,-1.270996 -0.24146,-2.666718 -0.36786,-4.541115 z"
   id="path12" />
<path
   fill="#1b4b9a"
   opacity="1"
   stroke="none"
   d="m 704.32886,86.672035 c -6e-5,-4.053253 -6e-5,-7.650848 -6e-5,-11.452232 5.77154,0 10.99206,0 16.49285,0 0,5.034103 0,9.922859 0,15.433624 -4.75695,0 -9.51855,0.166977 -14.24621,-0.158508 -0.8222,-0.0566 -1.50128,-2.191986 -2.24658,-3.822884 z"
   id="path13" />
<path
   fill="#194a99"
   opacity="1"
   stroke="none"
   d="m 539.93805,90.66906 c -3.41516,2.97e-4 -6.35486,2.97e-4 -9.50958,2.97e-4 0,-5.359573 0,-10.110176 0,-15.263138 5.34161,0 10.68921,0 16.31884,0 0,4.844239 0,9.741501 0,15.262543 -2.12799,0 -4.23089,0 -6.80926,2.98e-4 z"
   id="path14" />
<path
   fill="#1b4b9a"
   opacity="1"
   stroke="none"
   d="m 454.49753,76.492065 c 5.36264,-0.948806 10.66433,-1.44503 16.33432,-1.975738 0,5.707649 0,10.615066 0,15.845795 -5.25668,0 -10.49964,0 -16.39527,0 0,-4.540116 0,-8.978798 0.0609,-13.870057 z"
   id="path15" />
<path
   fill="#184999"
   opacity="1"
   stroke="none"
   d="m 441.85815,75.008514 c 1.7858,10e-5 3.09287,10e-5 4.72754,10e-5 0,5.19886 0,10.091438 0,15.32518 -5.39679,0 -10.77737,0 -16.3692,0 0,-5.001892 0,-9.782143 0,-15.325386 3.67993,0 7.42145,0 11.64166,1.06e-4 z"
   id="path16" />
<path
   fill="#99c225"
   opacity="1"
   stroke="none"
   d="m 102.48152,125.48573 c -0.009,0.0275 0.009,-0.0275 0,0 z"
   id="path17" />
<path
   fill="#2e7dc0"
   opacity="1"
   stroke="none"
   d="m 124.03706,192.00894 c -0.0119,-0.021 -0.2479,0.31494 -0.2479,0.31494 0,0 0.0884,-0.17747 0.1957,-0.224 0.10726,-0.0465 0.0641,-0.07 0.0522,-0.0909 z"
   id="path18" />




</svg>
