<?xml version="1.0" encoding="UTF-8" standalone="no"?>
<svg
   xmlns:dc="http://purl.org/dc/elements/1.1/"
   xmlns:cc="http://creativecommons.org/ns#"
   xmlns:rdf="http://www.w3.org/1999/02/22-rdf-syntax-ns#"
   xmlns:svg="http://www.w3.org/2000/svg"
   xmlns="http://www.w3.org/2000/svg"
   xmlns:sodipodi="http://sodipodi.sourceforge.net/DTD/sodipodi-0.dtd"
   xmlns:inkscape="http://www.inkscape.org/namespaces/inkscape"
   inkscape:version="1.0 (4035a4fb49, 2020-05-01)"
   sodipodi:docname="tampere2.svg"
   id="svg8"
   version="1.1"
   viewBox="0 0 132.29166 150.54792"
   height="569"
   width="500">
  <defs
     id="defs2">
    <style
       type="text/css"
       id="style6" />
  </defs>
  <sodipodi:namedview
     inkscape:snap-smooth-nodes="true"
     inkscape:snap-global="true"
     showguides="false"
     inkscape:object-nodes="true"
     inkscape:showpageshadow="false"
     inkscape:window-maximized="1"
     inkscape:window-y="-8"
     inkscape:window-x="-8"
     inkscape:window-height="1017"
     inkscape:window-width="1920"
     units="px"
     showgrid="false"
     inkscape:document-rotation="0"
     inkscape:current-layer="layer1"
     inkscape:document-units="px"
     inkscape:cy="288.89531"
     inkscape:cx="223.01135"
     inkscape:zoom="0.9134936"
     inkscape:pageshadow="2"
     inkscape:pageopacity="0.0"
     borderopacity="1.0"
     bordercolor="#666666"
     pagecolor="#ffffff"
     id="base"
     inkscape:snap-others="false"
     inkscape:lockguides="true" />
  <metadata
     id="metadata5">
    <rdf:RDF>
      <cc:Work
         rdf:about="">
        <dc:format>image/svg+xml</dc:format>
        <dc:type
           rdf:resource="http://purl.org/dc/dcmitype/StillImage" />
        <dc:title></dc:title>
      </cc:Work>
    </rdf:RDF>
  </metadata>
  <g
     transform="translate(-23.655055,-31.557225)"
     id="layer1"
     inkscape:groupmode="layer"
     inkscape:label="Шар 1">
    <g
       style="stroke-width:1.11738"
       transform="matrix(0.89495007,0,0,0.89495007,2.4849619,3.3150843)"
       id="g1204">
      <path
         id="path846"
         d="M 23.655055,125.10062 V 31.557225 H 171.47522 l -0.0661,93.543395 c 0,39.41856 -30.26456,74.67595 -73.877013,74.67595 -43.612454,0 -73.877012,-35.25739 -73.877012,-74.67595 z"
         style="font-variation-settings:normal;opacity:1;vector-effect:none;fill:#da251d;fill-opacity:1;fill-rule:evenodd;stroke:none;stroke-width:0.29564;stroke-linecap:butt;stroke-linejoin:miter;stroke-miterlimit:4;stroke-dasharray:none;stroke-dashoffset:0;stroke-opacity:1;marker:none;marker-start:none;marker-mid:none;marker-end:none;stop-color:#000000;stop-opacity:1"
         sodipodi:nodetypes="sccszs" />
      <g
         style="stroke-width:1.11738"
         id="g1193">
        <path
           sodipodi:nodetypes="cccccc"
           d="m 33.326073,41.57555 h 39.009109 l 9.984276,10.325558 V 62.226667 H 33.326073 Z"
           style="color:#000000;overflow:visible;opacity:1;fill:#bf9f4e;fill-opacity:1;fill-rule:evenodd;stroke:none;stroke-width:0.29564;stroke-linecap:square;stroke-linejoin:round;stroke-miterlimit:4;stroke-dasharray:none"
           id="rect861" />
        <path
           sodipodi:nodetypes="ccccc"
           d="m 63.31164,-63.728786 h 41.32596 v 15.722168 H 63.31164 Z"
           transform="rotate(90)"
           style="color:#000000;overflow:visible;opacity:1;fill:#bf9f4e;fill-opacity:1;fill-rule:evenodd;stroke:none;stroke-width:0.29564;stroke-linecap:square;stroke-linejoin:round;stroke-miterlimit:4;stroke-dasharray:none"
           id="rect863" />
      </g>
      <path
         id="use870"
         style="font-variation-settings:normal;vector-effect:none;fill:#bf9f4e;fill-opacity:1;fill-rule:evenodd;stroke:none;stroke-width:1.11738;stroke-linecap:butt;stroke-linejoin:miter;stroke-miterlimit:4;stroke-dasharray:none;stroke-dashoffset:0;stroke-opacity:1;marker:none;marker-start:none;marker-mid:none;marker-end:none;stop-color:#000000"
         d="m 531.08594,121.26758 c -8.65718,2.51379 -17.57093,6.51773 -27.39844,15.79883 -27.46027,25.93344 -13.44012,47.11344 -40.90039,73.04687 -27.46023,25.93344 -47.80535,10.72477 -75.26563,36.6582 -27.46025,25.93344 -13.43818,47.11344 -40.89843,73.04688 -27.46027,25.93345 -47.80538,10.72476 -75.26563,36.6582 -27.46025,25.93346 -13.43818,47.11346 -40.89844,73.04688 -27.46025,25.93345 -47.80537,10.72478 -75.26562,36.6582 -27.46025,25.93346 -13.43819,47.11537 -40.89844,73.04883 -4.42416,4.17817 -8.66109,7.27765 -12.77539,9.66406 10.63567,38.56999 29.17143,74.33596 54.26563,104.79297 20.48118,-10.76926 38.06316,-4.77118 60.3164,-25.78711 27.46025,-25.93345 13.43819,-47.11342 40.89844,-73.04687 27.46025,-25.93342 47.80537,-10.72475 75.26562,-36.65821 27.46026,-25.93341 13.43819,-47.11537 40.89844,-73.04883 27.46024,-25.93345 47.80536,-10.72279 75.26563,-36.65625 27.46023,-25.93345 13.44016,-47.11538 40.90039,-73.04882 27.46027,-25.93344 47.80535,-10.72477 75.26562,-36.65821 27.46024,-25.93343 13.43817,-47.11343 40.89844,-73.04687 14.93665,-14.10615 27.76869,-16.04773 40.78516,-19.05078 l 0.0605,-85.41797 z"
         transform="scale(0.26458333)" />
      <g
         style="stroke-width:1.11738"
         id="g1189"
         transform="translate(0.52916667,1.0583333)">
        <path
           transform="scale(0.26458333)"
           d="m 481.68164,410.43945 a 20.717771,20.717771 0 0 0 -20.70898,20.7168 20.717771,20.717771 0 0 0 12.35937,18.95508 l 0.084,22.7207 c -18.35238,1.56631 -32.37884,-12.4541 -31.22852,-31.80664 0,0 -25.54575,5.22443 -58.05664,-1.74219 -1.26146,10.18137 12.1763,20.71224 32.80273,21.19141 0,0 -11.03201,7.25622 -32.80273,2.03125 4.1393,13.08862 19.93024,18.20014 42.38086,15.38476 0,0 -12.19182,8.99921 -28.44727,6.38672 2.32222,9.85191 24.38277,14.0686 41.21875,5.51368 0,0 -5.22418,9.28965 -16.54492,13.35351 5.5025,3.88207 25.81796,5.04055 35.70313,-11.03125 0,0 0.29037,10.1615 -6.09571,14.51563 7.1111,1.17586 17.85584,-0.67303 21.14453,-13.62305 l 0.21094,56.63086 c 5.32965,0.82204 10.70315,1.73279 15.97071,2.99805 l 0.2207,-59.61915 c 3.2916,12.94123 14.03326,14.78885 21.14258,13.61329 -6.38608,-4.35413 -6.09571,-14.51563 -6.09571,-14.51563 9.88517,16.0718 30.20258,14.91332 35.70508,11.03125 -11.32074,-4.06386 -16.54687,-13.35351 -16.54687,-13.35351 16.83598,8.55492 38.89653,4.33823 41.21875,-5.51368 -16.25545,2.61249 -28.44532,-6.38672 -28.44532,-6.38672 22.45062,2.81538 38.23961,-2.29614 42.37891,-15.38476 -21.77072,5.22497 -32.80078,-2.03125 -32.80078,-2.03125 20.62643,-0.47917 34.06224,-11.01004 32.80078,-21.19141 -32.51089,6.96662 -58.05469,1.74219 -58.05469,1.74219 1.15033,19.35254 -12.87614,33.37295 -31.22851,31.80664 l 0.084,-22.7207 a 20.717771,20.717771 0 0 0 12.35742,-18.95508 20.717771,20.717771 0 0 0 -20.71679,-20.7168 20.717771,20.717771 0 0 0 -0.01,0 z m -7.9043,160.22852 0.13282,35.80664 c 4.99769,1.51283 10.43054,1.88589 15.55078,2.98047 l 0.1289,-34.83008 c -3.98507,-1.67339 -8.38701,-2.61521 -12.47461,-3.4668 -1.103,-0.17247 -2.22352,-0.32908 -3.33789,-0.49023 z m 0.21485,57.95117 0.11133,29.86524 c 1.01241,0.31742 2.03796,0.56164 3.05273,0.70703 4.02948,0.62679 8.11568,1.36309 12.11133,2.39648 l 0.10742,-28.78906 c -1.1669,-0.49777 -2.34673,-0.89861 -3.49609,-1.18164 -3.87235,-1.1577 -7.87727,-2.07066 -11.88672,-2.99805 z m 0.18945,51.05859 0.0918,24.8711 c 0.0151,4.10952 3.30841,7.41797 7.41797,7.41797 4.10959,0 7.40152,-3.30845 7.41797,-7.41797 l 0.0801,-21.8711 c -3.57377,-0.86396 -7.29735,-1.34155 -10.79883,-2.20703 -1.39903,-0.241 -2.8041,-0.50492 -4.20898,-0.79297 z"
           style="color:#000000;display:inline;overflow:visible;visibility:visible;fill:#bf9f4e;fill-opacity:1;fill-rule:evenodd;stroke:none;stroke-width:1.11738;stroke-linecap:square;stroke-linejoin:miter;stroke-miterlimit:4;stroke-dasharray:none;stroke-dashoffset:0;stroke-opacity:1;marker:none;marker-start:none;marker-mid:none;marker-end:none;enable-background:accumulate"
           id="path910" />
        <path
           sodipodi:nodetypes="cccscssscccsscscccccssssccccssssscccccscc"
           transform="scale(0.26458333)"
           d="m 491.80063,553.16927 c 8.11489,2.11578 15.91262,5.16345 22.79507,10.12761 0.41663,0.28583 0.82115,0.58588 1.22266,0.89062 14.674,-3.75765 25.98239,-10.13004 28.80859,-22 4.1051,-17.24152 -11.91992,-23.91602 -11.91992,-23.91602 -1.97559,-3.41238 -6.62286,-6.66805 -11.19141,-6.60351 -0.65264,0.009 -1.30388,0.0863 -1.94531,0.24023 -5.13139,1.23152 -6.36166,3.90002 -10.46679,4.31055 -4.1051,0.41049 -1.4375,5.33594 -1.4375,5.33594 0,0 9.03143,-1.84729 13.34179,2.25781 0,0 -4.31054,3.28531 -13.34179,0.82227 0,0 -0.82977,3.12177 3.69531,4.10546 4.72089,1.0263 5.72016,2.66797 9.85156,2.66797 4.1314,0 5.5421,-1.84799 8.82617,0.82032 0,0 1.47178,12.59044 -19.51367,16.28515 -5.81733,1.0242 -12.2058,1.8388 -18.73651,2.80991 z m -0.801,108.90778 c 6.10533,1.72513 11.94763,4.21427 16.98475,8.19053 0.196,0.14501 0.37467,0.30492 0.5625,0.45703 1.28262,-0.75281 2.57644,-1.56797 3.89843,-2.50391 12.86937,-9.11115 15.58457,-28.61071 4.05274,-42.58008 -11.90098,-14.41659 -32.27456,-14.29534 -42.42188,-17.02148 -10.14731,-2.72613 -16.38851,-9.37373 -14.32617,-20.45508 1.23471,-6.63431 4.72162,-11.53293 12.50621,-15.01635 l -0.14038,-2.72712 c -7.95675,-1.12179 -16.13066,-2.10868 -24.02599,-4.03385 v -2e-5 c -1.31084,1.08685 -2.56263,2.24556 -3.72851,3.5039 -9.2928,10.02981 -9.82817,26.49354 -4.64844,36.29688 5.17973,9.80334 12.84676,15.04837 28.83594,19.07031 15.98918,4.02195 24.55638,4.6479 30.50781,12.2793 5.95143,7.63139 2.98847,16.131 -4.23828,20.64453 -1.22309,0.76389 -2.49778,1.34565 -3.83241,1.81277 z m -18.28784,17.27543 c -6.09597,-1.33072 -12.14063,-3.19771 -17.59656,-6.13373 -3.70287,3.66022 -4.78512,7.54334 -5.04687,11.75391 -0.42833,6.89094 1.53377,14.04706 11.13672,17.49414 -2.80316,-6.32769 -4.54687,-17.56333 11.61133,-21.48047 z"
           style="font-variation-settings:normal;vector-effect:none;fill:#bf9f4e;fill-opacity:1;fill-rule:evenodd;stroke:none;stroke-width:1.11738;stroke-linecap:butt;stroke-linejoin:miter;stroke-miterlimit:4;stroke-dasharray:none;stroke-dashoffset:0;stroke-opacity:1;marker:none;marker-start:none;marker-mid:none;marker-end:none;stop-color:#000000"
           id="use1007" />
        <path
           sodipodi:nodetypes="ccssscsscccssscsssccccssscsssscc"
           transform="scale(0.26458333)"
           d="m 491.44531,609.91992 c 7.28079,1.4814 14.61639,4.27173 20.59961,8.75586 5.23451,-3.17293 8.80352,-7.15195 11.62305,-12.48828 5.17973,-9.80334 4.64436,-26.26707 -4.64844,-36.29688 -15.52902,-16.76057 -44.7193,-17.60173 -66.16211,-21.37695 -20.98545,-3.69468 -19.51562,-16.28515 -19.51562,-16.28515 3.28407,-2.66831 4.69477,-0.82032 8.82617,-0.82032 4.1314,0 5.13262,-1.64167 9.85351,-2.66797 4.52508,-0.98369 3.69336,-4.10546 3.69336,-4.10546 -9.03125,2.46304 -13.34179,-0.82227 -13.34179,-0.82227 4.31036,-4.1051 13.34179,-2.25781 13.34179,-2.25781 0,0 2.66955,-4.92545 -1.43554,-5.33594 -4.10514,-0.41053 -5.33736,-3.07903 -10.46875,-4.31055 -0.64143,-0.15394 -1.29267,-0.23101 -1.94532,-0.24023 -4.56854,-0.0645 -9.21581,3.19113 -11.1914,6.60351 0,0 -16.02307,6.6745 -11.91797,23.91602 4.10513,17.24145 26.10207,22.88811 50.32226,25.76172 24.22024,2.87357 32.4904,9.13349 34.55274,20.21484 1.93055,10.3732 -3.41508,16.86121 -12.42978,19.88426 z m -19.19456,18.3072 c -7.20376,-1.69298 -14.36023,-3.57721 -20.74294,-7.17439 -1.6405,1.34175 -3.19436,2.85721 -4.62304,4.58789 -11.53183,13.96937 -8.81859,33.46893 4.05078,42.58008 12.86936,9.11116 23.47266,8.84849 39.63086,12.76563 16.15819,3.91714 14.41449,15.15278 11.61132,21.48047 9.60295,-3.44708 11.5631,-10.6032 11.13477,-17.49414 -0.42837,-6.89099 -3.01296,-12.90834 -15.7793,-18.5 -12.76633,-5.59166 -21.74203,-3.77751 -28.96875,-8.29102 -7.22676,-4.51351 -10.18971,-13.01314 -4.23828,-20.64453 2.22973,-2.85914 4.82758,-4.73482 8.04495,-6.17417 z"
           style="font-variation-settings:normal;opacity:1;vector-effect:none;fill:#bf9f4e;fill-opacity:1;fill-rule:evenodd;stroke:none;stroke-width:1.11738;stroke-linecap:butt;stroke-linejoin:miter;stroke-miterlimit:4;stroke-dasharray:none;stroke-dashoffset:0;stroke-opacity:1;marker:none;marker-start:none;marker-mid:none;marker-end:none;stop-color:#000000;stop-opacity:1"
           id="path974" />
      </g>
    </g>
  </g>
</svg>
