<?xml version="1.0" encoding="UTF-8" standalone="no"?>
<!-- Generator: Adobe Illustrator 27.1.1, SVG Export Plug-In . SVG Version: 6.00 Build 0)  -->

<svg
   version="1.1"
   id="Layer_1"
   x="0px"
   y="0px"
   viewBox="0 0 439.8 172.6"
   style="enable-background:new 0 0 439.8 172.6;"
   xml:space="preserve"
   sodipodi:docname="oulu_S.svg"
   inkscape:version="1.2.2 (b0a84865, 2022-12-01)"
   xmlns:inkscape="http://www.inkscape.org/namespaces/inkscape"
   xmlns:sodipodi="http://sodipodi.sourceforge.net/DTD/sodipodi-0.dtd"
   xmlns="http://www.w3.org/2000/svg"
   xmlns:svg="http://www.w3.org/2000/svg"><defs
   id="defs68" /><sodipodi:namedview
   id="namedview66"
   pagecolor="#ffffff"
   bordercolor="#000000"
   borderopacity="0.25"
   inkscape:showpageshadow="2"
   inkscape:pageopacity="0.0"
   inkscape:pagecheckerboard="0"
   inkscape:deskcolor="#d1d1d1"
   showgrid="false"
   inkscape:zoom="2.5045226"
   inkscape:cx="248.75"
   inkscape:cy="141.94322"
   inkscape:window-width="1390"
   inkscape:window-height="1205"
   inkscape:window-x="3126"
   inkscape:window-y="84"
   inkscape:window-maximized="0"
   inkscape:current-layer="Layer_1" />
<style
   type="text/css"
   id="style2">
	.st0{fill:url(#SVGID_1_);}
	.st1{fill:url(#SVGID_00000013914301459570448120000010548421470630325902_);}
	.st2{fill:url(#SVGID_00000010276468684858184030000003891051454460472997_);}
	.st3{fill:url(#SVGID_00000109030415629827589710000008340594010633091986_);}
	.st4{fill:url(#SVGID_00000136413013952890947680000003210461926022564753_);}
	.st5{fill:#FFFFFF;}
	.st6{fill:#1D1D1B;}
</style>
<g
   id="g63"
   transform="translate(-16.8,-65.939787)">
	<g
   id="g51">
		<linearGradient
   id="SVGID_1_"
   gradientUnits="userSpaceOnUse"
   x1="16.749701"
   y1="139.02831"
   x2="133.34509"
   y2="139.02831">
			<stop
   offset="0"
   style="stop-color:#E40072"
   id="stop4" />
			<stop
   offset="0.5576"
   style="stop-color:#28348A"
   id="stop6" />
			<stop
   offset="1"
   style="stop-color:#00AFDB"
   id="stop8" />
		</linearGradient>
		<path
   class="st0"
   d="m 40.9,122.4 c 14,-10.8 24.8,-20.2 34.1,-26.7 -36,0.2 -58.2,25.7 -58.2,55.4 0,11.3 3.1,22.2 9.1,31.3 -8.1,-19.2 -7.7,-42.5 15,-60 z"
   id="path11"
   style="fill:url(#SVGID_1_)" />
		
			<linearGradient
   id="SVGID_00000062908124367782498250000003314526303671342783_"
   gradientUnits="userSpaceOnUse"
   x1="16.7498"
   y1="170.3839"
   x2="133.3452"
   y2="170.3839">
			<stop
   offset="0"
   style="stop-color:#E40072"
   id="stop13" />
			<stop
   offset="0.5353"
   style="stop-color:#1D70B7"
   id="stop15" />
			<stop
   offset="1"
   style="stop-color:#05BAEE"
   id="stop17" />
		</linearGradient>
		<path
   style="fill:url(#SVGID_00000062908124367782498250000003314526303671342783_)"
   d="m 133.3,151.1 c 0,-4.3 -0.5,-8.5 -1.5,-12.6 -2.2,10.1 -6.8,21.4 -13.3,34 -6.3,12.1 -12.6,22.2 -19.2,29.8 21.6,-8.8 34,-29.3 34,-51.2 z"
   id="path20" />
		
			<linearGradient
   id="SVGID_00000017511214465340457670000002594613749952114865_"
   gradientUnits="userSpaceOnUse"
   x1="-1236.0166"
   y1="7613.5913"
   x2="-1111.5295"
   y2="7613.5913"
   gradientTransform="matrix(0.175,0.9238,-0.8539,0.3934,6817.2568,-1770.3784)">
			<stop
   offset="1.897363e-07"
   style="stop-color:#E40072"
   id="stop22" />
			<stop
   offset="0.6199"
   style="stop-color:#28348A"
   id="stop24" />
			<stop
   offset="1"
   style="stop-color:#00AFDB"
   id="stop26" />
		</linearGradient>
		<path
   style="fill:url(#SVGID_00000017511214465340457670000002594613749952114865_)"
   d="m 131.8,138.5 c 4.5,-20.5 -0.7,-36.1 -19.4,-48 -12.8,-8.1 -23.4,-4.8 -37.5,5.1 0.1,0 0.3,0 0.4,0 29.6,0.1 50.9,19.4 56.5,42.9 z"
   id="path29" />
		
			<linearGradient
   id="SVGID_00000114758383914637981280000001424024862972411023_"
   gradientUnits="userSpaceOnUse"
   x1="-1236.0275"
   y1="7675.4419"
   x2="-1111.5404"
   y2="7675.4419"
   gradientTransform="matrix(0.175,0.9238,-0.8539,0.3934,6817.2568,-1770.3784)">
			<stop
   offset="0.1914"
   style="stop-color:#E40072"
   id="stop31" />
			<stop
   offset="0.5604"
   style="stop-color:#1D70B7"
   id="stop33" />
			<stop
   offset="1"
   style="stop-color:#05BAEE"
   id="stop35" />
		</linearGradient>
		<path
   style="fill:url(#SVGID_00000114758383914637981280000001424024862972411023_)"
   d="m 25.8,182.4 c 6.3,15 17.6,27.5 27.5,32.5 18.2,7.9 32.8,2.6 46.1,-12.6 -7.1,2.9 -15.1,4.5 -24,4.5 -23.4,0 -40.1,-10 -49.6,-24.4 z"
   id="path38" />
		
			<linearGradient
   id="SVGID_00000036950680489524522880000012209617807737343620_"
   gradientUnits="userSpaceOnUse"
   x1="43.087601"
   y1="119.33"
   x2="112.6797"
   y2="188.9221"
   gradientTransform="matrix(1,0.00164956,-0.00164956,1,0.06804939,0.1225)">
			<stop
   offset="0"
   style="stop-color:#6F0D5A"
   id="stop40" />
			<stop
   offset="0.4823"
   style="stop-color:#28348A"
   id="stop42" />
			<stop
   offset="0.9346"
   style="stop-color:#0073BC"
   id="stop44" />
		</linearGradient>
		<path
   style="fill:url(#SVGID_00000036950680489524522880000012209617807737343620_)"
   d="M 131.9,138.6 C 126.3,115.1 105,95.7 75.5,95.7 c -0.1,0 -0.3,0 -0.4,0 -9.3,6.5 -20.1,15.9 -34.1,26.6 -22.7,17.5 -23.1,40.8 -15.2,60 9.4,14.4 26.1,24.5 49.5,24.5 8.9,0 17,-1.6 24.1,-4.5 6.6,-7.6 13,-17.7 19.2,-29.8 6.5,-12.5 11,-23.8 13.3,-33.9 z"
   id="path47" />
		<path
   class="st5"
   d="m 102.3,133.6 c 0,-3.3 -1.4,-6.4 -4.9,-6.4 -3.5,0 -5.1,3.2 -5.1,6.4 0,3.3 1.6,6.6 5.1,6.6 3.5,-0.1 4.9,-3.3 4.9,-6.6 m 8.5,0 c 0,6.7 -5.1,12.8 -13.3,12.8 -8.8,0 -13.5,-6.1 -13.5,-12.8 0,-6.9 5.2,-12.8 13.5,-12.8 8,0 13.3,6.1 13.3,12.8"
   id="path49" />
	</g>
	<g
   id="g61">
		<path
   class="st6"
   d="m 221.5,151.4 c 0,-12.7 -5.5,-24.9 -18.9,-24.9 -13.5,0 -19.5,12.2 -19.5,24.9 0,12.8 6.1,25.3 19.5,25.3 13.4,0 18.9,-12.5 18.9,-25.3 m 15.8,0 c 0,17.4 -13.1,33.3 -34.6,33.3 -22.8,0 -35,-15.9 -35,-33.3 0,-17.8 13.4,-33.1 35,-33.1 20.6,0 34.6,15.9 34.6,33.1"
   id="path53" />
		<path
   class="st6"
   d="m 261.8,119.8 c 1.6,0 2.4,0.9 2.4,2.9 V 156 c 0,12.9 2.7,21.2 11.8,21.2 10.4,0 14.4,-6.1 14.4,-20.6 l 0.2,-34.4 c 0,-1.6 1.2,-2.4 3.2,-2.4 h 5.8 c 1.9,0 2.3,0.6 2.3,2.3 v 34.5 c 0,20.6 -10.6,28 -25.9,28 -20.3,0 -27.4,-9.9 -27.4,-25.1 v -36.7 c 0,-1.6 0.4,-3 2.9,-3 z"
   id="path55" />
		<path
   class="st6"
   d="m 330,119.9 c 1.5,0 2.3,1.2 2.3,2.6 v 48.8 c 0,1 -0.1,1.9 -0.2,2.8 -0.1,0.5 -0.3,0.8 -0.2,1 0,0 0.3,0 0.7,-0.1 0.3,-0.1 1.2,-0.1 1.4,-0.1 h 18.6 c 2.3,0 2.9,0.4 3.5,2.1 0.5,1.2 0.9,2 1.4,4.7 0.2,0.7 0.1,1.5 -0.7,1.5 h -36 c -1.7,0 -3,-1.1 -3,-3.1 v -57.4 c 0,-2.1 1.1,-2.9 3.3,-2.9 0,0.1 7.5,0.1 8.9,0.1 z"
   id="path57" />
		<path
   class="st6"
   d="m 376.4,119.8 c 1.6,0 2.4,0.9 2.4,2.9 V 156 c 0,12.9 2.7,21.2 11.8,21.2 10.4,0 14.4,-6.1 14.4,-20.6 l 0.2,-34.4 c 0,-1.6 1.2,-2.4 3.2,-2.4 h 5.8 c 1.9,0 2.4,0.6 2.4,2.3 v 34.5 c 0,20.6 -10.6,28 -26,28 -20.3,0 -27.4,-9.9 -27.4,-25.1 v -36.7 c 0,-1.6 0.4,-3 2.9,-3 z"
   id="path59" />
	</g>
</g>
</svg>
