<?xml version="1.0" encoding="UTF-8" standalone="no"?>
<!--
SPDX-FileCopyrightText: 2017-2022 City of Espoo

SPDX-License-Identifier: LGPL-2.1-or-later

NOTE: This is a placeholder file and MUST be replaced during deployment with
the real file. Due to licensing reasons, the logo for the city of Espoo
cannot be provided here.
-->
<!DOCTYPE svg PUBLIC "-//W3C//DTD SVG 1.1//EN" "http://www.w3.org/Graphics/SVG/1.1/DTD/svg11.dtd">
<svg viewBox="0 0 321.78 42.601" xmlns="http://www.w3.org/2000/svg">
  <g fill-rule="evenodd" font-size="9pt" stroke="#00358a" stroke-linecap="round" stroke-width=".25mm">
    <path d="m265.74 35.941v-14.46h2.94v15.72a17.892 17.892 0 0 1-5.476 3.551 21.194 21.194 0 0 1-1.214 0.469q-3.93 1.38-8.31 1.38a24.281 24.281 0 0 1-7.149-1.025 21.571 21.571 0 0 1-4.101-1.735q-5.01-2.76-7.86-7.62t-2.85-10.92a22.144 22.144 0 0 1 1.169-7.272 20.258 20.258 0 0 1 1.681-3.648q2.85-4.86 7.86-7.62t11.31-2.76a25.32 25.32 0 0 1 5.474 0.572 21.61 21.61 0 0 1 3.016 0.898q3.87 1.47 6.63 4.29l-1.92 2.04a16.375 16.375 0 0 0-4.121-3.036 15.043 15.043 0 0 0-1.789-0.774 20.016 20.016 0 0 0-4.764-1.05 24.723 24.723 0 0 0-2.466-0.12 20.912 20.912 0 0 0-6.34 0.937 18.734 18.734 0 0 0-3.41 1.463q-4.35 2.4-6.81 6.63a18.304 18.304 0 0 0-2.451 8.801 21.77 21.77 0 0 0-9e-3 0.649q0 5.16 2.49 9.39t6.81 6.66 9.72 2.43a22.194 22.194 0 0 0 5.54-0.659 16.599 16.599 0 0 0 6.4-3.181zm-229.02-30.12-1.92 1.98a17.065 17.065 0 0 0-10.746-4.882 23.062 23.062 0 0 0-2.154-0.098q-5.28 0-9.6 2.4t-6.78 6.63a18.304 18.304 0 0 0-2.451 8.801 21.77 21.77 0 0 0-9e-3 0.649 19.064 19.064 0 0 0 1.162 6.709 17.813 17.813 0 0 0 1.298 2.741q2.46 4.23 6.78 6.63a19.266 19.266 0 0 0 8.903 2.389 22.823 22.823 0 0 0 0.697 0.011 19.793 19.793 0 0 0 6.411-1 16.86 16.86 0 0 0 6.489-4.04l1.92 1.98q-2.7 2.88-6.57 4.38a22.495 22.495 0 0 1-6.979 1.463 26.155 26.155 0 0 1-1.391 0.037 23.79 23.79 0 0 1-7.075-1.025 21.155 21.155 0 0 1-4.055-1.735q-4.95-2.76-7.8-7.62t-2.85-10.92a22.144 22.144 0 0 1 1.169-7.272 20.258 20.258 0 0 1 1.681-3.648q2.85-4.86 7.8-7.62a21.941 21.941 0 0 1 9.228-2.693 26.462 26.462 0 0 1 1.902-0.067q4.56 0 8.4 1.47t6.54 4.35zm91.44-5.52-16.92 27.54v14.46h-3.06v-14.46l-16.92-27.54h3.36l15.18 24.72 15.18-24.72h3.18zm-55.44 42v-39.24h-15.12v-2.76h33.3v2.76h-15.12v39.24h-3.06zm78.48 0v-42h3.06v39.24h24.18v2.76h-27.24zm44.823-0.79a23.596 23.596 0 0 0 7.257 1.09 26.71 26.71 0 0 0 1.538-0.044 22.218 22.218 0 0 0 9.622-2.716q4.98-2.76 7.83-7.62a20.258 20.258 0 0 0 1.68-3.649 22.144 22.144 0 0 0 1.17-7.271q0-6.06-2.85-10.92t-7.83-7.62-11.16-2.76a26.43 26.43 0 0 0-1.527 0.043 22.041 22.041 0 0 0-9.633 2.747q-4.98 2.79-7.83 7.65a20.393 20.393 0 0 0-1.472 3.067 21.727 21.727 0 0 0-1.378 7.793 24.825 24.825 0 0 0 0.011 0.745 20.903 20.903 0 0 0 2.839 10.115q2.85 4.86 7.83 7.65a21.278 21.278 0 0 0 3.903 1.7zm96.66 0a23.596 23.596 0 0 0 7.257 1.09 26.71 26.71 0 0 0 1.538-0.044 22.218 22.218 0 0 0 9.622-2.716q4.98-2.76 7.83-7.62a20.258 20.258 0 0 0 1.68-3.649 22.144 22.144 0 0 0 1.17-7.271q0-6.06-2.85-10.92t-7.83-7.62-11.16-2.76a26.43 26.43 0 0 0-1.527 0.043 22.041 22.041 0 0 0-9.633 2.747q-4.98 2.79-7.83 7.65a20.393 20.393 0 0 0-1.472 3.067 21.727 21.727 0 0 0-1.378 7.793 24.825 24.825 0 0 0 0.011 0.745 20.903 20.903 0 0 0 2.839 10.115q2.85 4.86 7.83 7.65a21.278 21.278 0 0 0 3.903 1.7zm-89.403-1.73a19.999 19.999 0 0 0 6.346-0.985 18.158 18.158 0 0 0 3.194-1.415q4.26-2.4 6.72-6.63a18.304 18.304 0 0 0 2.45-8.802 21.77 21.77 0 0 0 0.01-0.648 19.064 19.064 0 0 0-1.163-6.71 17.813 17.813 0 0 0-1.297-2.74q-2.46-4.23-6.72-6.63a18.805 18.805 0 0 0-8.398-2.372 22.528 22.528 0 0 0-1.142-0.028 20.063 20.063 0 0 0-6.504 1.033 18.413 18.413 0 0 0-3.066 1.367q-4.29 2.4-6.75 6.63a18.304 18.304 0 0 0-2.451 8.801 21.77 21.77 0 0 0-9e-3 0.649 19.064 19.064 0 0 0 1.162 6.709 17.813 17.813 0 0 0 1.298 2.741q2.46 4.23 6.75 6.63t9.57 2.4zm96.66 0a19.999 19.999 0 0 0 6.346-0.985 18.158 18.158 0 0 0 3.194-1.415q4.26-2.4 6.72-6.63a18.304 18.304 0 0 0 2.45-8.802 21.77 21.77 0 0 0 0.01-0.648 19.064 19.064 0 0 0-1.163-6.71 17.813 17.813 0 0 0-1.297-2.74q-2.46-4.23-6.72-6.63a18.805 18.805 0 0 0-8.398-2.372 22.528 22.528 0 0 0-1.142-0.028 20.063 20.063 0 0 0-6.504 1.033 18.413 18.413 0 0 0-3.066 1.367q-4.29 2.4-6.75 6.63a18.304 18.304 0 0 0-2.451 8.801 21.77 21.77 0 0 0-9e-3 0.649 19.064 19.064 0 0 0 1.162 6.709 17.813 17.813 0 0 0 1.298 2.741q2.46 4.23 6.75 6.63t9.57 2.4zm-252.96 2.52v-42h3.06v42h-3.06z" vector-effect="non-scaling-stroke"/>
  </g>
</svg>
