<svg id="Layer_1" data-name="Layer 1" xmlns="http://www.w3.org/2000/svg" height="64" width="150" viewBox="0 0 202.43 81.36">
    <path d="M0,81.36H202.43V0H0Z" style="fill:none"/>
    <path d="M9.72,18.81H48.46V45.66c0,8.21-8.64,17-19.37,17-10.16,0-19.37-8.94-19.37-17Z" style="fill:#e30613"/>
    <path d="M10.16,48.71c1.61-2.15,2.73-.17,4-3.32.76-2,.31-4,4.76-5.15,5-1.3,1.3-5.76,7.6-7.29,4.83-1.18.92-6.42,8-7.53,3.92-.61,1.57-5.25,6.13-6.64l7.84,0v6.44c-6.21.5-3.6,6.33-8.44,7-6.26.89-2.22,6.29-8.67,7.52-4.83.92-1.77,5.68-6.76,7S21,50,19.42,52.3s-4,1.37-5.22,3.4a16,16,0,0,1-4-7" style="fill:#fbba00"/>
    <path d="M39.32,48.13c0,.66-1.71,1.08-1.54,1.15.92.42,1.49.75,1.49.75a2.16,2.16,0,0,0,1.51-2.28,1.53,1.53,0,0,0-2.11-1.27c-.22.08-.57.34-.52.67s.65-.11.65.05-.18-.05-.38.29.29.55.67.24a.4.4,0,0,1,.23.4" style="fill:#fbba00"/>
    <path d="M39.32,48.13c0,.66-1.71,1.08-1.54,1.15.92.42,1.49.75,1.49.75a2.16,2.16,0,0,0,1.51-2.28,1.53,1.53,0,0,0-2.11-1.27c-.22.08-.57.34-.52.67s.65-.11.65.05-.18-.05-.38.29.29.55.67.24A.4.4,0,0,1,39.32,48.13Z" style="fill:none;stroke:#e30613;stroke-miterlimit:3.864000082015991;stroke-width:0.18199999630451202px"/>
    <path d="M36.17,57.37s0,.74,0,.74c-1,.13-.53.93-1.3.88-.79-.21-.29-1.53.52-1.86.41.17.42.09.76.24" style="fill:#fbba00"/>
    <path d="M36.17,57.37s0,.74,0,.74c-1,.13-.53.93-1.3.88-.79-.21-.29-1.53.52-1.86C35.82,57.3,35.83,57.22,36.17,57.37Z" style="fill:none;stroke:#e30613;stroke-miterlimit:3.864000082015991;stroke-width:0.18199999630451202px"/>
    <path d="M34.44,41.32a4.06,4.06,0,0,0,.61,1.29c.25.35,1.09.82,1.1-.49a1.61,1.61,0,1,1,1.58,0c0,1.34.85.86,1.1.51a4.06,4.06,0,0,0,.61-1.29c4,.13,4.3-.56,4.45-.26.21,1-2.32,1.34-2,1.46.78.34,1.84-.2,1.78.12-.2.94-2.27,1-2.39,1.17s1.46.22,1.52.43c.14.57-2.5.63-2.66.6-.2.23,1,.21,1,.48-.22.51-2,0-2,0-.25.22.82.48.5.72a2.1,2.1,0,0,1-1.92-.53l-.07,13.4c0,.73-1.37,1-1.3,0l0-13.42a2.11,2.11,0,0,1-1.94.55c-.32-.24.75-.5.49-.72-.07-.06-1.8.49-2,0-.08-.27,1.15-.25,1-.48-.17,0-2.81,0-2.66-.6.06-.21,1.58-.13,1.52-.43s-2.19-.23-2.39-1.17c-.06-.32,1,.22,1.77-.12.34-.12-2.19-.5-2-1.46.15-.3.41.39,4.45.26" style="fill:#fbba00"/>
    <path d="M37.78,49.34c2.27.44,3.24,3.27.68,4.09l-.7-.32s0-.39,0-.39c1.45-.57,1.18-1.95-.9-2.29C33.22,49.82,33,49,33,47.91A1.58,1.58,0,0,1,35,46.45c.21.07.69.39.6.72s-.71-.13-.77.06.49.06.61.23-.45.64-.95.25a.42.42,0,0,0-.15.49c.21.48.7.55,2,.85a9.73,9.73,0,0,1,1.4.29" style="fill:#fbba00"/>
    <path d="M37.78,49.34c2.27.44,3.24,3.27.68,4.09l-.7-.32s0-.39,0-.39c1.45-.57,1.18-1.95-.9-2.29C33.22,49.82,33,49,33,47.91A1.58,1.58,0,0,1,35,46.45c.21.07.69.39.6.72s-.71-.13-.77.06.49.06.61.23-.45.64-.95.25a.42.42,0,0,0-.15.49c.21.48.7.55,2,.85A9.73,9.73,0,0,1,37.78,49.34Z" style="fill:none;stroke:#e30613;stroke-miterlimit:3.864000082015991;stroke-width:0.18199999630451202px"/>
    <path d="M34.82,50s.73.25,1.3.38a2.46,2.46,0,0,1,0,.47,1.09,1.09,0,0,0-.86.74c-.06.61.14.88,1.81,1.42,3,.68,2.66,2.1,2.53,2.63a2,2,0,0,1-1.4,1.31c-.14,0-.19-.13-.47-.28a1.47,1.47,0,0,1,0-.36s.67-.47.67-.93,0-.86-1.46-1.24c-4.28-.76-3.49-3.44-2.11-4.14" style="fill:#fbba00"/>
    <path d="M34.82,50s.73.25,1.3.38a2.46,2.46,0,0,1,0,.47,1.09,1.09,0,0,0-.86.74c-.06.61.14.88,1.81,1.42,3,.68,2.66,2.1,2.53,2.63a2,2,0,0,1-1.4,1.31c-.14,0-.19-.13-.47-.28a1.47,1.47,0,0,1,0-.36s.67-.47.67-.93,0-.86-1.46-1.24C32.65,53.37,33.44,50.69,34.82,50Z" style="fill:none;stroke:#e30613;stroke-miterlimit:3.864000082015991;stroke-width:0.18199999630451202px"/>
    <path d="M34.58,56.47a3.67,3.67,0,0,0,1.4.77c.81.39.87.39,1.37.61,1,.39.86,1.25,1.36,1.14s.37-1.45-.63-2a16.57,16.57,0,0,0-1.57-.72c-1.43-.68-1.48-1.42-.39-2.21a8.54,8.54,0,0,1-1.1-.46,1.76,1.76,0,0,0-.44,2.86" style="fill:#fbba00"/>
    <path d="M34.58,56.47a3.67,3.67,0,0,0,1.4.77c.81.39.87.39,1.37.61,1,.39.86,1.25,1.36,1.14s.37-1.45-.63-2a16.57,16.57,0,0,0-1.57-.72c-1.43-.68-1.48-1.42-.39-2.21a8.54,8.54,0,0,1-1.1-.46A1.76,1.76,0,0,0,34.58,56.47Z" style="fill:none;stroke:#e30613;stroke-miterlimit:3.864000082015991;stroke-width:0.18199999630451202px"/>
    <rect x="15.77" y="27.34" width="4.72" height="10.76" style="fill:#fbba00"/>
    <polygon points="12.43 21.61 22.03 21.61 24.56 23.81 24.56 26.77 20.49 26.77 15.78 26.77 12.43 26.77 12.43 21.61" style="fill:#fbba00"/>
    <polygon points="68.44 32.9 68.44 47.4 64.39 47.4 64.39 32.9 58.93 32.9 58.93 29.46 73.92 29.46 73.92 32.9 68.44 32.9" style="fill:#000"/>
    <path d="M82.09,33.69,79,40.57l5.67.18ZM77.76,43.91l-1.42,3.48H72.16L80,29.46h4.18l7.64,18H87.47l-1.41-3.49Z" style="fill:#000"/>
    <polygon points="109.52 47.4 109.52 35.3 104.76 45.58 102.12 45.58 97.35 35.3 97.35 47.4 93.68 47.4 93.68 29.46 98.22 29.46 103.45 40.43 108.65 29.46 113.16 29.46 113.16 47.4 109.52 47.4" style="fill:#000"/>
    <path d="M121.19,38.89h3.35c2.26,0,3.54-1,3.54-3.07s-1.28-3-3.54-3h-3.35Zm3.56-9.43c4.56,0,7.18,2.26,7.18,6.23,0,4.18-2.62,6.59-7.18,6.59h-3.56V47.4h-4V29.46Z" style="fill:#000"/>
    <polygon points="138.56 32.82 138.56 36.71 147.23 36.71 147.23 40.07 138.56 40.07 138.56 44.05 148.46 44.05 148.46 47.41 134.51 47.41 134.51 29.46 148.18 29.46 148.18 32.82 138.56 32.82" style="fill:#000"/>
    <path d="M159.43,38.89c2.23,0,3.51-1,3.51-3.07s-1.28-3-3.51-3h-3.74v6.07Zm.38,3.39h-4.12V47.4h-4.05V29.46h7.79c4.69,0,7.35,2.26,7.35,6.23,0,2.77-1.17,4.77-3.35,5.79l3.82,5.92h-4.59Z" style="fill:#000"/>
    <polygon points="174.24 32.82 174.24 36.71 182.91 36.71 182.91 40.07 174.24 40.07 174.24 44.05 184.14 44.05 184.14 47.41 170.19 47.41 170.19 29.46 183.86 29.46 183.86 32.82 174.24 32.82" style="fill:#000"/>
</svg>
