<svg id="Layer_1" data-name="Layer 1" xmlns="http://www.w3.org/2000/svg" viewBox="0 0 262.24 99.02" width="157" height="60"><rect width="262.24" height="99.02" style="fill:none"/><polygon points="186.05 25.24 186.05 50.78 202.12 50.78 202.12 46.42 191.71 46.42 191.71 40.03 201 40.03 201 35.49 191.71 35.49 191.71 29.68 202.12 29.68 202.12 25.24 186.05 25.24" style="fill:#eb5e57"/><polygon points="25.27 25.2 25.27 30.83 32.28 30.83 32.28 50.78 37.95 50.78 37.95 30.83 45.1 30.83 45.1 25.2 25.27 25.2" style="fill:#eb5e57"/><path d="M57.34,25.24,45.42,50.78H50.9l1.61-3.52H64.46l1.65,3.52h5.51l-12-25.54Zm1.17,9.14,3.84,8.33H54.62Z" style="fill:#eb5e57"/><polygon points="100.38 25.24 89.14 35.48 77.86 25.24 75.65 25.24 75.65 50.78 81.35 50.78 81.35 36.09 89.14 43.13 96.9 36.04 96.9 50.78 102.6 50.78 102.6 25.24 100.38 25.24" style="fill:#eb5e57"/><path d="M110,50.78V25.24h10.65a9.2,9.2,0,0,1,.15,18.39h-5.14v7.15Zm5.66-11.84h5.1a4.53,4.53,0,0,0,4.6-4.56,4.6,4.6,0,0,0-4.6-4.59h-5.1Z" style="fill:#eb5e57"/><polygon points="135.1 25.24 135.1 50.78 151.17 50.78 151.17 46.42 140.76 46.42 140.76 40.03 150.05 40.03 150.05 35.49 140.76 35.49 140.76 29.68 151.17 29.68 151.17 25.24 135.1 25.24" style="fill:#eb5e57"/><path d="M174.06,50.78l-4.17-7.15h-5.51v7.15h-5.66V25.24h10.65a9.19,9.19,0,0,1,6.24,16l-.42.39,5.38,9.2Zm-9.68-11.84h5.1a4.52,4.52,0,0,0,4.59-4.56,4.6,4.6,0,0,0-4.59-4.59h-5.1Z" style="fill:#eb5e57"/><polygon points="135.1 61.1 135.1 73.75 138.06 73.75 138.06 68.42 142.68 68.42 142.68 66.17 138.06 66.17 138.06 63.26 143.29 63.26 143.29 61.1 135.1 61.1" style="fill:#00a8d9"/><rect x="149.15" y="61.1" width="2.96" height="12.64" style="fill:#00a8d9"/><polygon points="167.49 61.1 167.49 67.95 160.12 61.1 159.16 61.1 159.16 73.75 162.13 73.75 162.13 66.88 169.47 73.75 170.45 73.75 170.45 61.1 167.49 61.1" style="fill:#00a8d9"/><polygon points="177.47 61.1 177.47 73.75 185.61 73.75 185.61 70.95 180.44 70.95 180.44 61.1 177.47 61.1" style="fill:#00a8d9"/><path d="M195.62,61.1l-6.34,12.65h2.87L193,72h6.4l.88,1.75h2.88L196.78,61.1Zm.6,4.47,2.07,4.2h-4.17Z" style="fill:#00a8d9"/><path d="M224.16,73.75V61.1h4.92a6.34,6.34,0,1,1,0,12.65Zm3-2.73h2a3.54,3.54,0,1,0,0-7.06h-2Z" style="fill:#00a8d9"/><polygon points="214.85 61.23 214.85 67.9 208.16 61.23 207.22 61.23 207.22 73.75 210.03 73.75 210.03 67.06 216.7 73.75 217.66 73.75 217.66 61.23 214.85 61.23" style="fill:#00a8d9"/><path d="M208.48,47.26a4,4,0,0,1,7.92,0,4,4,0,1,1-7.92,0" style="fill:#00a8d9"/></svg>