<?xml version="1.0" encoding="UTF-8" standalone="no"?>
<svg
   version="1.1"
   id="Layer_1"
   x="0px"
   y="0px"
   width="100%"
   viewBox="0 0 1500 448"
   enable-background="new 0 0 1500 448"
   xml:space="preserve"
   sodipodi:docname="OrivesiLog.svg"
   inkscape:version="1.3.2 (091e20e, 2023-11-25, custom)"
   xmlns:inkscape="http://www.inkscape.org/namespaces/inkscape"
   xmlns:sodipodi="http://sodipodi.sourceforge.net/DTD/sodipodi-0.dtd"
   xmlns="http://www.w3.org/2000/svg"
   xmlns:svg="http://www.w3.org/2000/svg"><defs
   id="defs12" /><sodipodi:namedview
   id="namedview12"
   pagecolor="#ffffff"
   bordercolor="#000000"
   borderopacity="0.25"
   inkscape:showpageshadow="2"
   inkscape:pageopacity="0.0"
   inkscape:pagecheckerboard="0"
   inkscape:deskcolor="#d1d1d1"
   inkscape:zoom="1.75"
   inkscape:cx="750"
   inkscape:cy="223.71429"
   inkscape:window-width="3440"
   inkscape:window-height="1369"
   inkscape:window-x="-8"
   inkscape:window-y="-8"
   inkscape:window-maximized="1"
   inkscape:current-layer="Layer_1" />

<path
   fill="#0A0501"
   opacity="1.000000"
   stroke="none"
   d=" M391.001770,156.490265   C411.149445,156.657425 430.841980,156.067001 450.432526,157.216171   C468.131226,158.254364 483.715759,164.945755 494.338287,180.285980   C506.908356,198.438721 507.030884,234.933853 478.944031,250.467880   C478.257446,250.847595 477.635925,251.344940 476.696198,251.982834   C486.120575,265.853851 495.437408,279.566559 505.053192,293.719299   C504.061127,293.906769 503.370178,294.150238 502.678833,294.151337   C488.019073,294.174561 473.357941,294.262665 458.701263,294.050079   C456.956451,294.024750 454.620972,292.767792 453.605072,291.338440   C447.537323,282.801605 441.586182,274.166718 435.998230,265.310883   C433.457245,261.283936 430.738983,258.829803 425.717163,259.783508   C423.982574,260.112946 422.132812,259.835907 419.966919,259.835907   C419.966919,271.251190 419.966919,282.339233 419.966919,293.796997   C404.231506,293.796997 388.863556,293.796997 373.245178,293.796997   C373.245178,248.287552 373.245178,202.702499 373.245178,156.490250   C378.960602,156.490250 384.731384,156.490250 391.001770,156.490265  M438.796997,224.394516   C440.283661,224.211792 441.796722,224.148376 443.252625,223.826477   C451.217773,222.065399 455.330658,216.511536 455.171051,207.840042   C455.026733,200.000000 450.592712,193.968506 442.981201,193.216125   C435.443481,192.471054 427.774567,193.053192 420.155884,193.053192   C420.155884,203.394516 420.155884,213.790573 420.155884,224.493301   C426.289398,224.493301 432.098907,224.493301 438.796997,224.394516  z"
   id="path2" />
<path
   fill="#0A0501"
   opacity="1.000000"
   stroke="none"
   d=" M155.048401,247.812866   C141.404861,201.741913 171.176468,158.208893 218.665192,153.843094   C239.735214,151.906082 259.634796,154.916748 277.199799,167.141556   C301.289856,183.907684 310.522980,207.824066 306.524384,236.260422   C302.329132,266.095306 284.235870,285.495819 255.731598,293.634918   C225.712006,302.206665 197.302521,298.167419 173.128860,276.542328   C164.527145,268.847473 158.844131,259.105560 155.048401,247.812866  M205.133743,203.719376   C199.458221,211.958572 198.107574,221.196976 199.111191,230.878647   C201.648849,255.358780 227.921829,268.114594 247.093292,254.007629   C259.008331,245.240158 261.677887,232.512833 259.779419,218.774429   C258.009338,205.965042 251.170227,196.475601 238.435959,192.393539   C226.180664,188.465042 214.171234,192.600143 205.133743,203.719376  z"
   id="path3" />
<path
   fill="#0B0602"
   opacity="1.000000"
   stroke="none"
   d=" M1165.268188,154.144196   C1186.401855,151.862961 1206.547119,153.844711 1225.884399,161.940186   C1228.149292,162.888382 1230.293457,164.124741 1232.719238,165.340576   C1228.021606,176.676941 1223.460205,187.684814 1218.998779,198.451630   C1210.694336,195.755249 1202.730957,192.210663 1194.401489,190.742523   C1186.526978,189.354568 1178.255493,189.819244 1170.183838,190.128647   C1166.479126,190.270645 1162.980103,192.406784 1162.615356,196.795792   C1162.228149,201.455856 1165.754883,203.112259 1169.445312,204.023651   C1180.568726,206.770706 1191.756958,209.256302 1202.875977,212.020294   C1206.731323,212.978668 1210.557129,214.214584 1214.228149,215.731186   C1239.776001,226.285797 1246.966187,256.638702 1228.877563,277.650757   C1220.258789,287.662354 1208.890259,293.026093 1196.175903,295.327728   C1169.960449,300.073364 1144.515381,297.172546 1120.036499,286.508301   C1118.097656,285.663605 1116.297485,284.500580 1114.129517,283.320343   C1119.218018,271.792694 1124.161499,260.593262 1129.162231,249.264297   C1144.351807,257.339386 1160.061279,262.154694 1177.068237,261.781738   C1180.206787,261.712952 1183.609619,261.682922 1186.379883,260.469421   C1188.765015,259.424622 1191.877930,256.799255 1191.993774,254.723404   C1192.110718,252.627777 1189.361816,249.194122 1187.123047,248.369095   C1180.767212,246.026886 1174.022217,244.750244 1167.446655,242.992722   C1159.433716,240.850967 1151.239868,239.187393 1143.476196,236.353180   C1128.806030,230.997757 1118.213989,221.659744 1116.679932,204.933319   C1115.075317,187.438950 1121.597900,173.756439 1136.316772,164.100403   C1144.975708,158.419891 1154.736206,155.802231 1165.268188,154.144196  z"
   id="path4" />
<path
   fill="#0A0501"
   opacity="1.000000"
   stroke="none"
   d=" M756.496094,180.475128   C764.124268,199.098495 771.566956,217.383820 779.360168,236.530197   C785.797119,221.172333 791.905640,206.616364 797.999146,192.054153   C802.486633,181.329926 806.888367,170.568802 811.512390,159.903915   C812.111389,158.522263 813.798035,156.659317 815.006592,156.640076   C829.289673,156.412552 843.577637,156.493729 858.456116,156.493729   C857.764709,158.549515 857.357422,160.087799 856.743469,161.538666   C838.562195,204.504013 820.331909,247.448700 802.230774,290.447784   C801.117249,293.093109 800.008667,294.300140 796.930359,294.253510   C784.100342,294.058990 771.265137,294.106232 758.433289,294.225861   C755.823669,294.250153 754.302673,293.723694 753.181458,291.055481   C734.721436,247.123932 716.142151,203.242538 697.599731,159.345627   C697.297180,158.629440 697.121155,157.859802 696.688782,156.489883   C707.283691,156.489883 717.380615,156.489883 727.477600,156.489883   C732.644104,156.489883 737.817261,156.646408 742.974426,156.426651   C745.727417,156.309357 747.128845,157.141403 748.119812,159.807449   C750.664307,166.653046 753.557129,173.369171 756.496094,180.475128  z"
   id="path5" />
<path
   fill="#0A0502"
   opacity="1.000000"
   stroke="none"
   d=" M582.164368,221.999924   C582.164368,200.042801 582.164368,178.585693 582.164368,156.809143   C597.825623,156.809143 613.219543,156.809143 628.808960,156.809143   C628.808960,202.481598 628.808960,248.028198 628.808960,293.873779   C613.391235,293.873779 598.029541,293.873779 582.164368,293.873779   C582.164368,270.006226 582.164368,246.253082 582.164368,221.999924  z"
   id="path6" />
<path
   fill="#0A0501"
   opacity="1.000000"
   stroke="none"
   d=" M1326.000488,156.491241   C1334.473999,156.491257 1342.447632,156.491257 1350.709229,156.491257   C1350.709229,202.372360 1350.709229,247.928055 1350.709229,293.827759   C1335.609497,293.827759 1320.390259,293.827759 1304.829956,293.827759   C1304.829956,248.350677 1304.829956,202.799759 1304.829956,156.491211   C1311.656372,156.491211 1318.578491,156.491211 1326.000488,156.491241  z"
   id="path7" />
<path
   fill="#ED0582"
   opacity="1.000000"
   stroke="none"
   d=" M924.406677,197.394501   C922.629883,198.616257 921.144592,199.620911 918.858643,201.167175   C918.858643,193.533951 918.766113,186.653473 918.958740,179.781006   C918.987488,178.755692 920.160461,177.490723 921.133972,176.805023   C932.694763,168.661911 944.388306,160.705139 955.870911,152.454514   C958.400024,150.637344 959.960266,151.520935 961.998047,152.850037   C975.511719,161.664169 989.126282,170.325516 1002.550354,179.273270   C1005.362427,181.147629 1007.161621,181.222275 1009.928955,179.170105   C1021.808472,170.360657 1033.894409,161.829620 1046.805664,152.549866   C1046.805664,160.422852 1046.903320,167.445602 1046.693115,174.459122   C1046.663940,175.434433 1045.256958,176.557037 1044.251587,177.285675   C1032.666382,185.682831 1020.970886,193.929550 1009.468262,202.437378   C1006.983032,204.275513 1005.369873,204.092148 1002.925293,202.474274   C989.472717,193.571274 975.842896,184.935883 962.399170,176.019882   C959.658203,174.202057 957.789185,174.016556 954.985107,176.048676   C945.019531,183.271011 934.813293,190.161346 924.406677,197.394501  z"
   id="path8" />
<path
   fill="#ED0482"
   opacity="1.000000"
   stroke="none"
   d=" M1029.834961,235.817535   C1022.926758,240.792465 1016.208618,245.426483 1009.736145,250.381348   C1007.167603,252.347656 1005.328186,252.202316 1002.726868,250.481781   C989.268127,241.580292 975.606506,232.983994 962.209229,223.992798   C959.273315,222.022385 957.451538,222.411774 954.841553,224.270874   C943.217712,232.550430 931.457336,240.638184 918.856384,249.415100   C918.856384,241.638794 918.788391,234.764877 918.937073,227.895645   C918.957031,226.972198 919.870972,225.790268 920.705383,225.203979   C933.224609,216.407135 945.799866,207.690155 958.556641,198.819031   C974.514893,209.139450 990.408936,219.418350 1006.352051,229.729004   C1019.695557,220.141891 1032.790161,210.733597 1046.813110,200.658310   C1046.813110,208.505005 1046.910034,215.524719 1046.701416,222.535339   C1046.672363,223.511047 1045.273193,224.623306 1044.278076,225.362747   C1039.603882,228.836136 1034.849243,232.201385 1029.834961,235.817535  z"
   id="path9" />
<path
   fill="#ED0482"
   opacity="1.000000"
   stroke="none"
   d=" M993.484863,269.534729   C997.958313,272.441711 1002.137573,275.136383 1006.351501,277.853333   C1019.691711,268.273468 1032.792114,258.865845 1046.802002,248.805054   C1046.802002,256.679779 1046.876587,263.697174 1046.708130,270.708710   C1046.687012,271.592804 1045.534790,272.649414 1044.658569,273.283203   C1031.984619,282.450714 1019.268372,291.559540 1006.344238,300.838928   C990.519104,290.596191 974.750793,280.390259 958.607971,269.941864   C945.633789,278.933441 932.606323,287.961975 918.840027,297.502563   C918.840027,289.787201 918.694031,283.012878 918.971069,276.255890   C919.022522,275.000336 920.559509,273.508057 921.778809,272.644409   C933.050659,264.660217 944.467834,256.879883 955.680847,248.815231   C958.079834,247.089844 959.621582,247.520081 961.784790,248.946014   C972.203552,255.813904 982.713257,262.543671 993.484863,269.534729  z"
   id="path10" />


</svg>
