<?xml version="1.0" encoding="UTF-8"?>
<svg id="Logot" xmlns="http://www.w3.org/2000/svg" viewBox="0 0 795 240">
  <defs>
    <style>
      .cls-1 {
        fill: #14a7e0;
      }

      .cls-2 {
        fill: #141f99;
      }
    </style>
  </defs>
  <rect id="Rectangle_597" data-name="Rectangle 597" class="cls-2" x="695" y="80" width="20" height="80"/>
  <path id="Path_1177" data-name="Path 1177" class="cls-2" d="m195,142v-62h-20v80h65v-18h-45Z"/>
  <path id="Path_1178" data-name="Path 1178" class="cls-2" d="m651.03,122.33c-4.01,9.27-8.23,16.11-11.03,19.02-2.8-2.92-7.02-9.75-11.03-19.02-5.74-13.38-8.79-27.77-8.97-42.33h-20c0,40,22.1,82,40,82s40-42,40-82h-20c-.18,14.56-3.23,28.95-8.97,42.33"/>
  <path id="Path_1179" data-name="Path 1179" class="cls-2" d="m465,78c-17.9,0-40,42-40,82h20c.01-4.01.27-8.02.78-12h38.44c.51,3.98.77,7.99.78,12h20c0-40-22.1-82-40-82m-15.46,52c1.23-4.2,2.71-8.31,4.44-12.33,4.01-9.27,8.23-16.11,11.02-19.02,2.8,2.91,7.02,9.75,11.02,19.02,1.73,4.02,3.21,8.13,4.44,12.33h-30.92Z"/>
  <rect id="Rectangle_598" data-name="Rectangle 598" class="cls-2" x="277" y="62" width="15" height="10"/>
  <rect id="Rectangle_599" data-name="Rectangle 599" class="cls-2" x="298" y="62" width="15" height="10"/>
  <rect id="Rectangle_600" data-name="Rectangle 600" class="cls-2" x="447" y="62" width="15" height="10"/>
  <rect id="Rectangle_601" data-name="Rectangle 601" class="cls-2" x="468" y="62" width="15" height="10"/>
  <path id="Path_1180" data-name="Path 1180" class="cls-2" d="m131.46,108.94c-4.88,8.2-9.49,12.72-11.46,13.78-1.97-1.07-6.58-5.58-11.46-13.78-5.43-9.12-8.54-19.67-8.54-28.94h-20c0,24.56,14.81,50.44,30,59.03v20.97h20v-20.97c15.19-8.59,30-34.47,30-59.03h-20c0,9.28-3.11,19.83-8.54,28.94"/>
  <path id="Path_1181" data-name="Path 1181" class="cls-2" d="m395,122c0,12.15-8.95,22-20,22-5.86,0-11-3-15-7l-13.28,13.28c15.62,15.62,40.95,15.62,56.57,0,7.5-7.5,11.72-17.68,11.72-28.28v-42h-20v42Z"/>
  <path id="Path_1182" data-name="Path 1182" class="cls-2" d="m590,114c0-15.22-20-34-50-34h-20v80h20v-12c5.83.02,11.63-.73,17.26-2.23,5.13,3.34,8.92,8.38,10.7,14.23h20.04c0-7.44-4.8-15.72-13.2-22.25,9.64-6.73,15.2-15.73,15.2-23.75m-50-16c18.91,0,30,11.82,30.96,16-.96,4.18-12.06,16-30.96,16v-32Z"/>
  <path id="Path_1183" data-name="Path 1183" class="cls-2" d="m339.5,117.4c-5.71,3.3-12.1,5.24-18.68,5.67.12-1.02.18-2.05.18-3.07.12-6.39-2.38-12.56-6.92-17.06-4.7-4.54-11.29-6.94-19.08-6.94s-14.38,2.4-19.08,6.94c-2.3,2.24-4.09,4.94-5.25,7.93-7.52.2-14.89,2.14-21.54,5.65.61-9.99,4.93-19.4,12.11-26.38,8.31-7.95,19.98-12.15,33.75-12.15s25.44,4.2,33.75,12.15c7.2,7,11.52,16.44,12.11,26.47l-1.36.79Z"/>
  <path id="Path_1184" data-name="Path 1184" class="cls-1" d="m250.5,122.6c13.3-7.69,29.7-7.69,43,0,14.58,8.44,32.48,8.77,47.36.88-.62,9.99-4.93,19.39-12.11,26.37-8.31,7.95-19.98,12.15-33.75,12.15s-25.44-4.2-33.75-12.15c-7.2-7-11.52-16.44-12.11-26.47l1.36-.79Z"/>
</svg>