<?xml version="1.0" encoding="UTF-8" standalone="no"?>
<svg
   id="Layer_1"
   data-name="Layer 1"
   viewBox="-15 -30 721.65 200.08"
   version="1.1"
   sodipodi:docname="Kangasala_logo_RGB_color.svg"
   width="721.65002"
   height="200.08"
   inkscape:version="1.3.2 (091e20e, 2023-11-25, custom)"
   xmlns:inkscape="http://www.inkscape.org/namespaces/inkscape"
   xmlns:sodipodi="http://sodipodi.sourceforge.net/DTD/sodipodi-0.dtd"
   xmlns="http://www.w3.org/2000/svg"
   xmlns:svg="http://www.w3.org/2000/svg"
   xmlns:rdf="http://www.w3.org/1999/02/22-rdf-syntax-ns#"
   xmlns:cc="http://creativecommons.org/ns#"
   xmlns:dc="http://purl.org/dc/elements/1.1/">
  <sodipodi:namedview
     id="namedview9"
     pagecolor="#ffffff"
     bordercolor="#000000"
     borderopacity="0.25"
     inkscape:showpageshadow="2"
     inkscape:pageopacity="0.0"
     inkscape:pagecheckerboard="0"
     inkscape:deskcolor="#d1d1d1"
     inkscape:zoom="4.107356"
     inkscape:cx="355.82501"
     inkscape:cy="99.942639"
     inkscape:window-width="3440"
     inkscape:window-height="1369"
     inkscape:window-x="-8"
     inkscape:window-y="-8"
     inkscape:window-maximized="1"
     inkscape:current-layer="Layer_1" />
  <defs
     id="defs1">
    <style
       id="style1">.cls-1{fill:#e01f27;}</style>
  </defs>
  <title
     id="title1">Kangasala_logo_RGB</title>
  <path
     d="m 148.42,42.58 a 36.06,36.06 0 1 0 0,59.42 v 6.35 h 17.23 V 36.23 h -17.23 z m 0,31.49 a 20.48,20.48 0 1 1 0,-3.56 z"
     id="path1" />
  <path
     d="m 399,42.58 a 36.06,36.06 0 1 0 0,59.42 v 6.35 h 17.23 V 36.23 H 399 Z m 0,31.49 a 20.48,20.48 0 1 1 0,-3.56 z"
     id="path2" />
  <path
     d="m 545.79,42.58 a 36.06,36.06 0 1 0 0,59.42 v 6.35 H 563 V 36.23 h -17.21 z m 0,31.49 a 20.48,20.48 0 1 1 0,-3.56 z"
     id="path3" />
  <path
     d="m 660.25,36.23 v 6.35 a 36.06,36.06 0 1 0 0,59.42 v 6.35 h 17.23 V 36.23 Z m 0,37.84 a 20.48,20.48 0 1 1 0,-3.56 z"
     id="path4" />
  <rect
     x="575.63"
     y="14.17"
     width="17.23"
     height="94.169998"
     id="rect4" />
  <path
     d="m 215.89,36.23 a 35.88,35.88 0 0 0 -20.41,6.35 v -6.35 h -17.23 v 72.12 h 17.23 V 70.51 a 20.49,20.49 0 0 1 40.91,1.78 v 36.06 H 252 v -38 h -0.05 A 36.11,36.11 0 0 0 215.89,36.23 Z"
     id="path5" />
  <polygon
     points="98.71,108.35 50.37,59.03 94.49,14.17 70.94,14.17 33.01,53.95 33.01,14.17 14.17,14.17 14.17,108.35 33.01,108.35 33.01,66.34 73.17,108.35 "
     id="polygon5" />
  <path
     class="cls-1"
     d="m 297.25,36.19 a 36.06,36.06 0 1 0 36.07,36.05 36.1,36.1 0 0 0 -36.07,-36.05 z m 0,56.54 a 20.49,20.49 0 1 1 20.49,-20.49 20.51,20.51 0 0 1 -20.49,20.49 z"
     id="path6" />
  <path
     class="cls-1"
     d="m 317.74,119.85 a 20.5,20.5 0 0 1 -41,0 v -2.54 h -15.56 v 2.54 a 36.07,36.07 0 0 0 72.14,0 v -2.54 h -15.58 z"
     id="path7" />
  <path
     class="cls-1"
     d="m 325.32,17.6 a 9.32,9.32 0 1 0 9.32,9.32 9.33,9.33 0 0 0 -9.32,-9.32 z"
     id="path8" />
  <path
     d="m 458.41,64.37 q -6.92,-2 -9.24,-3.66 a 5.32,5.32 0 0 1 -2.33,-4.58 q 0,-5.19 9.71,-5.19 a 41.06,41.06 0 0 1 10.3,1.4 37.55,37.55 0 0 1 9.51,3.79 l 2.13,-14.62 a 36,36 0 0 0 -10.24,-3.86 55,55 0 0 0 -12.5,-1.46 q -12.76,0 -20.07,5.58 -7.31,5.58 -7.32,15.29 0,8.64 5.12,13.75 5.12,5.11 17.08,8.44 7.59,2.13 10,3.72 a 5.26,5.26 0 0 1 2.39,4.66 q 0,5.72 -11.3,5.71 a 42.43,42.43 0 0 1 -22.2,-6.78 l -2.27,15 a 29.2,29.2 0 0 0 10.64,4.72 57.89,57.89 0 0 0 14.63,1.79 q 13.69,0 21.47,-5.58 a 17.92,17.92 0 0 0 7.78,-15.42 q 0,-8.9 -5.25,-14 -5.25,-5.1 -18.04,-8.7 z"
     id="path9" />
  <metadata
     id="metadata9">
    <rdf:RDF>
      <cc:Work
         rdf:about="">
        <dc:title>Kangasala_logo_RGB</dc:title>
      </cc:Work>
    </rdf:RDF>
  </metadata>
</svg>
