<svg xmlns="http://www.w3.org/2000/svg" height="283.75" width="497.5"><g fill="#00358a" fill-rule="evenodd"><path d="M118.782 229.874c19.342 16.362 46.524 11.292 68.58-.006l17.412.006c-32.579 22.76-72.3 26.002-95.329 2.973a51.956 51.956 0 01-2.753-2.977l12.09.004"/><path d="M59.31 199.874a42.85 42.85 0 002.637 2.89c9.098 9.097 21.906 13.702 36.54 13.896-2.266-5.257-3.713-10.902-4.378-16.792l8.723.005c.78 5.878 2.445 11.39 4.994 16.337 14.476-1.546 30.202-7.023 45.534-16.328l15.361-.009c-17.865 13.023-37.274 21.413-55.592 24.312a47.708 47.708 0 005.653 5.685l-12.09.003a51.735 51.735 0 01-3.533-4.65c-18.394.88-35.14-4.255-47.278-16.392a53.238 53.238 0 01-7.2-8.949l10.63-.009zm216.664 0v10.34h27.392v-7.49h-19.739v-2.85h-7.653zm37.597 0l-4.487 3.999c2.897 4.264 8.475 6.943 14.872 6.943 9.831 0 14.478-4.36 14.988-10.939l-7.928-.004c-.335 2.401-2.474 3.452-6.622 3.452-3.283 0-6.388-1.009-8.925-3.458l-1.898.007zm34.36 0v10.34h17.388c7.488 0 12.651-3.6 13.493-10.343l-8.033.002c-.629 1.903-2.324 3.07-5.187 3.07h-10.17v-3.07h-7.49zm39.035 0c2.373 6.723 7.691 10.942 15.231 10.942 7.543 0 12.86-4.22 15.233-10.95l-8.654.007c-1.417 2.086-3.57 3.343-6.579 3.343-3.007 0-5.16-1.257-6.577-3.336l-8.654-.007zm-199.605 30c10.986-5.634 20.7-12.807 27.539-19.645a4.29 4.29 0 116.071 6.062 121.19 121.19 0 01-16.197 13.584l-17.413-.001"/><path d="M49.655 179.874c1.76 7.586 4.973 14.372 9.655 20H48.68c-3.86-6.02-6.475-12.767-7.924-20.006l8.899.006zm53.713 0c-1.196 6.93-1.376 13.677-.537 19.998l-8.722.001c-.726-6.438-.521-13.164.563-19.996l8.696-.004zm88.003 0a167.476 167.476 0 01-3.47 3.575 162.71 162.71 0 01-19.18 16.428l-15.361-.004c8.879-5.381 17.627-12.056 25.924-19.995l12.087-.004zm84.603 0v20h7.654v-6.39h10.99v-7.436h-10.99v-6.174h-7.654zm34.915 0a10.71 10.71 0 00-.329 2.675c0 7.545 4.921 9.787 11.975 11.428 7.218 1.64 8.529 2.733 8.529 5.193 0 .249-.016.485-.048.71l7.928-.006a15.7 15.7 0 00.049-1.251c0-8.31-6.727-10.388-12.795-11.809-6.07-1.422-7.71-2.187-7.71-4.593 0-.84.336-1.693 1.173-2.34l-8.772-.007zm17.972 0c1.363.675 2.608 1.63 3.789 2.838l2.926-2.838h-6.715zm19.07 0v20h7.492v-6.827h10.17c3.717 0 5.467 1.64 5.467 4.92 0 .693-.092 1.33-.281 1.9l8.034.007c.08-.645.12-1.317.12-2.016 0-4.21-2.296-6.999-5.357-8.365 2.514-1.531 4.045-4.156 4.045-7.436 0-.772-.065-1.501-.192-2.189l-8.74.005c.806.612 1.168 1.546 1.168 2.785 0 2.132-1.148 3.609-4.32 3.609h-10.115v-6.394h-7.49zm40.07 0c-1.585 3.098-2.425 6.91-2.425 11.204 0 3.236.478 6.198 1.39 8.788l8.654.007c-1.492-2.183-2.17-5.288-2.17-8.795 0-5.135 1.451-9.406 4.793-11.212l-10.242.007zm18.153 0c3.342 1.798 4.792 6.069 4.792 11.204 0 3.507-.676 6.611-2.17 8.802l8.654-.006c.912-2.598 1.39-5.56 1.39-8.796 0-4.294-.84-8.105-2.424-11.206l-10.242.001zm-90.685 20a15.108 15.108 0 01-.863-.922l-1.035.921h1.898"/><path d="M48.24 159.874c-.494 7.064-.026 13.8 1.414 20.003l-8.898-.004c-1.269-6.344-1.643-13.058-1.174-19.995l8.658-.004zm61.258 0c-2.953 6.697-4.997 13.43-6.13 19.997l-8.696.003c1.052-6.62 2.93-13.342 5.585-19.993l9.242-.008zm97.915 0a160.438 160.438 0 01-16.043 20h-12.086a156.554 156.554 0 0017.683-20.008l10.446.008zm68.56 0v2.31h27.393v-2.31h-27.392zm37.348 0c2.913 1.853 6.611 2.912 10.635 2.912 4.839 0 8.423-1.057 10.874-2.914l-21.509.001zm34.61 0v2.31h7.655v-2.31h-7.655zm43.125 0c2.56 1.871 5.756 2.912 9.501 2.912 3.747 0 6.943-1.04 9.503-2.913h-19.004zm39.886 0c2.56 1.871 5.757 2.912 9.502 2.912 3.746 0 6.942-1.04 9.502-2.913h-19.004zm-147.315 20v-.442h18.92v-7.49h-26.573v7.932h7.654zm36.034 0c.853-.652 2.225-1.098 4.295-1.098 1.819 0 3.43.384 4.905 1.106l6.715-.009 2.596-2.518c-3.608-3.773-7.982-6.015-13.943-6.015-6.518 0-11.975 3.183-13.34 8.526l8.772.008zm35.761 0v-.879h9.733c1.619 0 2.773.296 3.534.875l8.74.003c-.951-5.164-5.384-7.931-11.946-7.931H347.93v7.932h7.492zm42.82 0c1.107-.606 2.42-.934 3.955-.934 1.538 0 2.85.328 3.957.926l10.242.007c-2.712-5.308-7.605-8.533-14.199-8.533-6.59 0-11.485 3.225-14.196 8.532l10.241.001"/><path d="M39.581 159.874c1.848-27.354 16.798-58.179 41.682-83.061 42.221-42.222 101.554-55.847 132.02-25.382 25.117 25.117 20.266 69.853-5.87 108.445l-10.447-.003c13.9-18.784 21.875-38.788 23.731-56.825-23.773-12.104-60.402-3.884-88.628 24.34-10.08 10.08-17.608 21.23-22.57 32.486h-9.242c5.447-13.631 14.166-26.973 25.745-38.553 28.305-28.303 67.14-39.518 95.105-27.613-.258-14.497-4.862-27.18-13.89-36.21-25.082-25.08-78.532-15.974-119.888 25.382-24.224 24.224-37.384 52.596-39.089 76.988l-8.658.006zm263.785 0v-5.18h-19.739v-9.24h10.992v-7.437h-10.992v-6.616h18.92v-7.49h-26.573v35.962h27.392zm31.464 0c2.84-2.153 4.162-5.379 4.162-9.281 0-8.31-6.726-10.388-12.793-11.81-6.07-1.422-7.71-2.187-7.71-4.592 0-1.696 1.366-3.445 5.467-3.445 3.499 0 6.234 1.421 8.694 3.936l5.523-5.358c-3.61-3.773-7.983-6.014-13.944-6.014-7.544 0-13.669 4.265-13.669 11.209 0 7.545 4.921 9.787 11.975 11.427 7.218 1.64 8.529 2.734 8.529 5.194 0 2.898-2.131 4.155-6.67 4.155-3.664 0-7.109-1.257-9.788-4.374l-5.522 4.922c1.075 1.582 2.52 2.946 4.237 4.036l21.509-.005zm20.756 0v-11.249h8.42c7.929 0 13.834-3.717 13.834-12.575 0-8.148-5.96-12.139-13.177-12.139H347.93v35.963h7.655zm54.474 0c4.579-3.349 7.12-9.356 7.12-16.826 0-11.647-6.179-19.738-16.622-19.738s-16.622 8.091-16.622 19.738c0 7.47 2.542 13.477 7.12 16.825h19.004zm39.886 0c4.579-3.349 7.12-9.356 7.12-16.826 0-11.647-6.178-19.738-16.622-19.738-10.443 0-16.621 8.091-16.621 19.738 0 7.47 2.54 13.477 7.12 16.825h19.003zm-40.64-16.826c0 6.833-2.57 12.137-8.748 12.137-6.178 0-8.748-5.304-8.748-12.137 0-6.835 2.57-12.138 8.748-12.138 6.178 0 8.748 5.303 8.748 12.138zm39.887 0c0 6.833-2.57 12.137-8.75 12.137-6.177 0-8.747-5.304-8.747-12.137 0-6.835 2.57-12.138 8.748-12.138 6.179 0 8.749 5.303 8.749 12.138zm-79.227-6.835c0 3.336-1.913 4.976-5.466 4.976h-8.914v-9.841h8.804c3.39 0 5.576 1.53 5.576 4.864"/></g></svg>
